<?xml version="1.0" standalone="no"?>
<!DOCTYPE svg PUBLIC "-//W3C//DTD SVG 20010904//EN"
 "http://www.w3.org/TR/2001/REC-SVG-20010904/DTD/svg10.dtd">
<svg version="1.0" xmlns="http://www.w3.org/2000/svg"
 width="1200.000000pt" height="1800.000000pt" viewBox="0 0 1200.000000 1800.000000"
 preserveAspectRatio="xMidYMid meet">

<g transform="translate(0.000000,1800.000000) scale(0.100000,-0.100000)"
fill="#000000" stroke="none">
<path d="M0 9000 l0 -9000 6000 0 6000 0 0 9000 0 9000 -6000 0 -6000 0 0
-9000z m8305 4921 c-4 -9 0 -11 11 -7 8 3 20 6 26 6 6 0 7 7 4 16 -4 10 -1 14
6 11 7 -2 13 -20 13 -40 0 -42 2 -44 22 -19 13 16 14 16 8 -4 -4 -15 -1 -21
11 -21 11 0 14 7 11 22 -3 18 0 21 15 17 14 -3 16 -7 7 -18 -17 -21 10 -18 33
3 18 16 19 16 9 -10 -7 -17 -7 -27 -1 -27 6 0 10 7 10 15 0 8 5 15 10 15 6 0
10 8 10 17 0 23 12 8 15 -19 4 -40 7 -44 15 -18 l8 25 1 -24 c1 -20 3 -21 16
-11 8 7 15 20 15 28 0 13 3 12 15 -4 13 -18 14 -18 15 -1 0 12 4 16 13 10 6
-4 17 -8 23 -9 29 -4 69 -32 66 -45 -1 -8 5 -5 16 8 18 20 20 20 36 5 15 -15
16 -15 16 1 0 24 14 21 36 -8 25 -33 34 -32 34 6 0 25 -3 29 -14 20 -10 -9
-16 -8 -26 3 -13 16 -6 36 13 36 7 0 6 -4 -3 -10 -8 -5 -11 -12 -7 -16 4 -4
13 -2 19 4 8 8 14 7 23 -5 15 -20 45 -26 62 -11 10 8 10 14 2 24 -7 9 -8 14
-1 14 12 0 24 -29 16 -41 -3 -5 -2 -19 1 -30 l7 -21 15 21 c19 28 32 27 27 -1
-4 -20 -2 -19 9 4 10 22 15 24 29 14 10 -7 14 -17 10 -22 -4 -4 0 -3 10 4 11
9 17 10 20 2 2 -8 13 -6 32 4 16 8 34 13 38 10 5 -3 17 1 27 10 17 15 19 15
24 1 4 -8 12 -15 18 -15 8 0 8 4 -1 15 -11 13 -10 14 2 10 9 -4 23 2 32 11 13
13 17 13 16 3 -4 -27 0 -39 14 -39 8 0 17 7 20 16 5 13 9 14 21 4 7 -6 11 -18
8 -26 -4 -10 0 -12 11 -8 18 7 21 20 6 29 -16 10 -12 25 6 25 10 0 14 -6 10
-15 -3 -9 0 -15 10 -15 9 0 18 9 21 20 6 22 18 26 28 9 4 -6 14 -8 22 -5 8 3
11 1 8 -4 -3 -6 -1 -10 4 -10 6 0 11 6 11 14 0 8 5 18 11 22 8 4 9 -9 6 -45
-3 -28 -2 -51 3 -51 11 0 20 26 20 56 0 29 16 32 23 5 3 -12 14 -19 28 -20 45
-1 74 -6 87 -14 8 -6 12 -2 12 12 0 12 5 21 10 21 6 0 10 -4 10 -10 0 -5 5
-10 11 -10 5 0 7 5 4 10 -3 6 -1 10 4 10 6 0 12 8 12 18 1 16 2 16 6 0 5 -21
19 -24 26 -5 3 8 10 6 23 -8 22 -24 90 -63 80 -46 -11 18 2 13 24 -9 12 -12
25 -18 31 -14 6 3 3 11 -8 20 -17 12 -16 13 10 14 18 0 26 -4 22 -11 -4 -6 2
-13 14 -16 21 -5 30 -23 11 -23 -23 0 -8 -19 21 -25 29 -7 30 -8 15 -30 -9
-14 -12 -26 -6 -30 5 -3 7 -12 4 -20 -6 -15 12 -38 34 -43 14 -2 14 0 6 22 -3
9 -9 14 -14 11 -4 -2 -7 10 -8 26 -1 29 0 30 14 13 13 -16 15 -16 10 -2 -2 9
2 22 10 29 13 11 14 9 9 -13 -5 -21 -2 -27 14 -33 20 -6 20 -7 3 -33 -9 -15
-24 -32 -32 -39 -8 -6 -12 -15 -7 -19 4 -4 7 -2 7 5 0 7 3 10 8 8 8 -5 43 30
40 40 -2 4 11 8 27 9 32 2 71 -28 60 -46 -10 -16 -33 -11 -37 8 -2 9 -6 12
-10 7 -3 -6 -1 -18 6 -27 11 -15 16 -15 39 -3 22 11 28 11 38 -1 9 -11 7 -14
-10 -14 -13 0 -21 -6 -21 -17 0 -15 2 -16 10 -3 8 12 10 11 10 -7 0 -13 5 -23
10 -23 6 0 10 5 10 10 0 6 7 10 15 10 14 0 13 -3 -1 -27 -11 -19 -11 -22 -1
-10 18 21 31 22 23 2 -7 -18 10 -20 18 -2 4 6 4 2 2 -10 -3 -15 0 -20 11 -16
11 4 13 0 8 -18 -5 -19 0 -28 22 -41 15 -10 22 -18 16 -18 -8 0 -13 -13 -13
-31 0 -17 4 -28 10 -24 6 3 10 1 10 -4 0 -6 12 -11 26 -11 24 0 26 -3 22 -30
-4 -27 -2 -31 16 -29 12 0 24 1 29 0 4 -1 9 0 12 2 2 1 11 -7 19 -18 15 -20
12 -40 -5 -29 -5 3 -7 9 -5 13 8 13 -38 10 -54 -3 -28 -24 -50 -27 -50 -6 0
10 5 22 10 25 6 4 7 11 4 17 -4 6 -13 0 -21 -16 -19 -36 -2 -71 28 -56 25 14
44 3 28 -16 -9 -11 -9 -17 1 -29 7 -8 16 -12 21 -9 5 3 9 1 9 -4 0 -6 -11 -13
-25 -16 -15 -4 -25 -14 -25 -24 0 -15 -2 -15 -10 -2 -8 12 -10 12 -10 1 0 -9
-9 -12 -30 -9 -28 4 -30 3 -30 -29 0 -25 -4 -33 -18 -33 -9 0 -26 -12 -37 -26
-11 -14 -30 -30 -43 -35 -13 -5 -20 -13 -17 -19 3 -5 1 -10 -4 -10 -6 0 -11
-6 -11 -14 0 -7 -7 -19 -15 -26 -8 -6 -14 -15 -13 -18 2 -19 -4 -23 -17 -12
-23 19 -18 3 7 -19 11 -11 24 -18 28 -16 5 3 11 -7 14 -20 4 -17 11 -23 19
-19 7 4 5 -1 -4 -12 -25 -30 -29 -51 -12 -66 14 -11 16 -10 10 13 -5 18 -2 31
8 39 12 10 15 9 15 -4 0 -9 5 -16 10 -16 6 0 10 -8 10 -17 0 -14 2 -15 9 -4 7
12 12 11 30 -1 11 -8 18 -18 13 -23 -4 -4 3 -4 15 -1 12 4 24 2 28 -4 3 -5 0
-10 -9 -10 -15 0 -16 -36 -2 -58 4 -8 0 -12 -11 -12 -13 0 -15 -2 -5 -9 7 -4
12 -12 11 -17 -2 -15 13 -54 21 -54 5 0 11 8 13 18 4 13 5 11 6 -5 1 -17 7
-23 25 -23 26 0 59 -29 35 -31 -8 -1 -18 -1 -22 0 -5 1 -6 -9 -2 -21 5 -18 4
-20 -4 -8 -18 26 -36 -6 -36 -60 1 -31 -3 -47 -10 -43 -5 3 -4 0 4 -8 10 -11
15 -11 18 -1 3 6 9 10 13 7 5 -3 7 -12 3 -20 -3 -8 0 -15 7 -15 7 0 10 8 7 19
-3 11 4 26 15 36 25 21 36 12 14 -11 -16 -15 -15 -18 9 -40 14 -12 25 -33 25
-44 0 -14 4 -19 13 -14 9 5 9 3 -1 -7 -11 -12 -14 -12 -22 1 -6 8 -8 21 -5 28
2 6 -3 12 -11 12 -8 0 -12 5 -9 10 3 6 1 10 -4 10 -6 0 -11 -4 -11 -9 0 -5 -9
-7 -20 -4 -12 3 -20 0 -20 -6 0 -7 4 -10 8 -7 5 3 6 -15 2 -40 -4 -26 -12 -49
-19 -53 -8 -5 -5 -13 9 -26 18 -17 20 -17 20 -1 0 9 -4 14 -10 11 -12 -7 -12
-3 -4 19 3 9 10 13 15 10 16 -10 30 6 20 24 -9 17 11 47 23 35 11 -11 6 -24
-6 -17 -8 5 -9 2 -4 -11 4 -11 0 -25 -9 -35 -9 -9 -13 -25 -9 -34 8 -20 20
-21 27 -2 4 10 1 13 -9 9 -7 -3 -14 0 -14 6 0 12 16 13 44 2 18 -7 18 -8 3
-14 -9 -3 -17 -13 -17 -21 0 -10 -6 -13 -15 -10 -8 4 -15 1 -15 -6 0 -6 -4 -8
-10 -5 -6 3 -7 -1 -3 -10 5 -13 7 -14 14 -3 10 14 10 14 13 -24 1 -15 0 -25
-3 -23 -9 10 -29 -17 -25 -33 5 -15 4 -15 -9 1 -14 16 -15 15 -19 -18 -5 -45
5 -64 22 -39 10 16 11 16 6 2 -3 -10 -1 -18 4 -18 4 0 11 13 15 29 3 16 12 32
19 34 18 7 41 -37 38 -74 -1 -16 3 -29 9 -29 6 0 17 -7 26 -15 14 -14 13 -15
-10 -9 -29 7 -57 -12 -49 -34 6 -18 23 -15 20 4 -2 10 4 19 12 21 9 3 11 1 5
-4 -5 -4 -10 -15 -10 -23 0 -28 -30 -21 -43 10 -18 40 -28 38 -28 -5 0 -26 4
-35 17 -35 35 0 50 -11 38 -26 -7 -8 -9 -17 -5 -21 3 -3 6 -1 6 5 0 7 5 12 10
12 6 0 1 -17 -10 -37 -15 -28 -17 -39 -7 -45 6 -4 14 -3 15 2 6 16 22 12 22
-5 0 -9 -9 -15 -21 -15 -11 0 -27 7 -35 15 -17 17 -44 20 -44 6 0 -5 9 -13 20
-16 11 -4 18 -11 15 -16 -4 -5 1 -9 10 -9 9 0 13 -5 9 -11 -4 -7 -17 0 -35 17
-16 15 -32 24 -36 20 -4 -4 -2 -11 5 -15 7 -4 14 -19 16 -32 1 -14 5 -30 9
-36 4 -6 6 -17 4 -25 -2 -7 -2 -10 0 -5 8 13 23 8 23 -8 0 -8 -4 -15 -10 -15
-5 0 -10 -7 -10 -15 0 -9 -10 -20 -22 -25 -18 -7 -19 -9 -5 -9 23 -1 22 -18
-2 -26 -18 -6 -37 -45 -21 -45 4 0 10 10 13 22 6 21 7 21 25 5 11 -10 23 -17
28 -16 20 3 34 -2 34 -12 0 -5 -4 -7 -10 -4 -5 3 -10 -1 -10 -10 0 -9 5 -13
10 -10 6 4 10 3 9 -2 -3 -19 2 -34 10 -29 5 3 7 15 4 26 -3 12 0 20 7 20 10 0
10 3 0 15 -7 8 -19 15 -26 15 -8 0 -14 5 -14 11 0 6 9 9 20 6 11 -3 18 -1 14
4 -3 5 2 9 10 9 9 0 16 -9 16 -20 0 -11 7 -20 16 -20 11 0 14 -6 9 -20 -8 -26
14 -58 26 -38 6 10 9 8 9 -6 0 -11 5 -16 14 -13 8 3 17 0 20 -8 3 -9 0 -12
-10 -8 -10 3 -14 -2 -14 -18 0 -19 -2 -21 -10 -9 -8 13 -10 12 -10 -2 0 -21
13 -23 43 -6 19 10 20 9 9 -4 -12 -15 -7 -48 8 -48 12 0 19 -39 9 -46 -5 -3
-9 1 -9 8 0 18 -38 50 -45 38 -3 -4 1 -11 7 -14 10 -5 10 -7 1 -12 -7 -3 -13
-13 -13 -22 0 -13 2 -14 9 -4 7 11 10 10 15 -3 7 -20 -1 -38 -15 -30 -5 4 -9
-3 -9 -15 0 -18 -3 -19 -20 -10 -14 7 -26 7 -39 1 -10 -6 -21 -7 -25 -4 -3 3
-6 -1 -6 -10 0 -9 -7 -17 -15 -17 -8 0 -15 4 -15 9 0 5 -9 11 -20 14 -17 4
-19 1 -14 -18 7 -29 -34 -44 -53 -18 -12 15 -13 15 -13 -5 0 -13 -6 -22 -15
-22 -8 0 -15 -9 -15 -20 0 -11 -5 -20 -11 -20 -5 0 -7 4 -4 10 3 6 -1 7 -9 4
-9 -3 -16 -12 -16 -20 0 -8 -4 -14 -10 -14 -5 0 -10 -7 -10 -15 0 -8 -4 -15
-10 -15 -5 0 -10 12 -10 26 0 16 -5 24 -12 21 -7 -2 -13 -15 -12 -30 1 -23 -1
-25 -17 -16 -12 6 -19 6 -19 0 0 -5 6 -12 13 -14 6 -3 -5 -3 -25 0 -37 5 -54
-9 -25 -21 6 -2 -6 -3 -27 -1 -22 3 -45 0 -53 -6 -10 -9 -13 -6 -14 12 0 16
-3 19 -6 9 -4 -8 -12 -21 -20 -28 -11 -11 -14 -9 -19 17 -4 17 -11 31 -16 31
-5 0 -6 -9 -3 -20 5 -14 2 -20 -10 -20 -12 0 -16 7 -13 27 2 16 -2 28 -11 31
-8 3 -11 0 -7 -7 4 -6 3 -11 -2 -11 -5 0 -12 -9 -15 -21 -5 -17 -9 -19 -25
-10 -16 8 -21 7 -26 -5 -3 -8 -9 -13 -14 -10 -4 2 -19 -5 -32 -16 -14 -11 -20
-17 -14 -14 19 10 25 -67 6 -81 -18 -15 -42 -17 -42 -4 0 5 7 8 16 7 12 -1 17
8 19 32 2 34 -11 43 -22 15 -11 -29 -29 -43 -52 -38 -12 2 -21 0 -21 -6 0 -5
11 -9 25 -9 22 0 24 -2 13 -14 -7 -8 -17 -13 -23 -13 -5 1 -9 -6 -7 -15 2 -11
-3 -18 -13 -18 -8 0 -15 -4 -15 -10 0 -6 -10 -5 -26 2 -20 10 -27 9 -34 -2 -5
-8 -13 -11 -17 -6 -4 5 -2 11 5 13 18 7 14 25 -5 21 -11 -2 -18 -14 -19 -33
-2 -39 -2 -39 -18 -26 -11 9 -15 8 -20 -5 -3 -9 -3 -20 0 -25 3 -5 2 -9 -3 -8
-21 4 -31 -3 -37 -25 -7 -30 -31 -40 -50 -21 -17 17 -30 20 -21 5 3 -5 -1 -10
-9 -10 -9 0 -16 -5 -16 -11 0 -6 7 -9 15 -5 8 3 15 1 15 -4 0 -6 -6 -10 -14
-10 -8 0 -17 -6 -19 -12 -3 -8 -6 -6 -6 5 -1 9 -5 17 -11 17 -5 0 -14 -8 -19
-17 -10 -17 -10 -17 -11 0 0 9 -4 17 -10 17 -5 0 -10 -4 -10 -10 0 -5 -7 -10
-15 -10 -9 0 -12 -6 -9 -15 6 -14 -19 -20 -74 -18 -7 1 -11 -5 -8 -13 6 -16
-10 -19 -19 -4 -4 7 -13 6 -27 -1 -33 -18 -78 -20 -78 -4 0 8 5 15 10 15 6 0
10 7 10 16 0 12 -5 11 -20 -7 -10 -13 -19 -18 -20 -11 0 21 -20 13 -20 -8 0
-11 5 -20 10 -20 6 0 10 -4 10 -10 0 -19 -21 -10 -30 13 l-9 22 0 -22 c-1 -13
-4 -22 -8 -21 -5 1 -18 -3 -30 -10 -17 -9 -23 -9 -23 -1 0 21 -41 68 -55 63
-7 -3 -11 -12 -9 -19 3 -8 12 -11 19 -9 7 3 18 -4 24 -15 15 -27 14 -31 -4
-25 -8 4 -15 2 -15 -4 0 -6 6 -12 13 -15 6 -2 9 -8 5 -12 -4 -4 -14 0 -23 9
-21 20 -36 21 -29 1 4 -8 2 -15 -4 -15 -5 0 -13 10 -16 23 l-7 22 -9 -22 c-13
-31 -24 -29 -16 2 4 14 2 25 -4 25 -5 0 -10 -7 -10 -16 0 -10 -6 -14 -14 -11
-7 3 -19 0 -26 -6 -10 -10 -12 -7 -7 11 3 15 1 22 -9 22 -8 0 -11 -6 -8 -15 4
-8 1 -16 -5 -16 -20 -3 -26 -4 -38 -12 -7 -5 -13 -4 -13 1 0 15 26 33 35 24 5
-4 5 -2 1 5 -8 15 -47 13 -65 -5 -7 -7 -16 -10 -19 -7 -4 3 0 10 8 15 13 8 12
10 -2 10 -9 0 -25 3 -35 7 -15 6 -16 4 -6 -9 11 -12 9 -18 -7 -33 -12 -10 -18
-25 -16 -32 9 -23 -10 -14 -24 12 -14 26 -30 29 -38 7 -2 -7 2 -10 11 -6 8 3
17 -2 20 -10 4 -10 1 -13 -9 -9 -9 3 -14 -1 -15 -13 0 -16 -2 -15 -10 4 -5 13
-13 20 -19 17 -6 -4 -7 -11 -4 -17 4 -6 2 -8 -3 -5 -6 4 -10 18 -10 32 0 32
-5 37 -27 29 -20 -8 -21 -24 -1 -24 8 0 14 -3 13 -7 -1 -5 3 -17 9 -28 8 -15
8 -23 -3 -33 -8 -7 -14 -8 -14 -2 0 5 -7 10 -15 10 -8 0 -15 -7 -15 -16 0 -13
-7 -15 -30 -11 -22 5 -28 3 -24 -8 3 -8 13 -16 22 -18 10 -3 2 -5 -17 -6 -30
-1 -33 -3 -27 -26 4 -14 2 -25 -4 -25 -5 0 -10 5 -10 10 0 6 -9 10 -19 10 -15
0 -18 5 -13 22 4 16 2 19 -9 13 -12 -7 -12 -6 -1 7 10 12 9 18 -3 28 -13 11
-16 8 -21 -18 -7 -34 -32 -50 -40 -27 -5 13 -12 12 -45 -7 -21 -11 -36 -25
-32 -31 3 -5 -5 -3 -18 3 -17 10 -24 10 -27 1 -2 -6 -8 -9 -12 -6 -5 3 -7 12
-3 20 3 10 -1 15 -12 15 -10 0 -13 -5 -9 -12 4 -7 3 -8 -5 -4 -8 5 -10 19 -5
39 7 36 29 61 44 52 5 -3 10 -1 10 5 0 6 -7 13 -15 16 -8 4 -12 10 -9 15 3 5
18 3 33 -5 17 -9 32 -11 42 -5 12 7 12 9 0 9 -8 0 -11 3 -8 7 4 3 2 12 -5 20
-9 11 -8 13 3 11 8 -2 13 4 13 15 -1 9 2 17 6 17 5 0 12 9 15 20 4 11 10 18
15 15 4 -3 10 3 13 14 3 11 -4 23 -17 31 -11 7 -18 9 -14 5 4 -4 2 -17 -4 -28
-9 -18 -11 -19 -20 -3 -11 20 -28 12 -28 -15 0 -11 -5 -17 -10 -14 -6 3 -7 17
-4 31 6 23 -1 29 -33 25 -6 -1 -14 3 -18 9 -3 5 -11 10 -16 10 -6 0 -7 -4 -4
-10 3 -5 1 -10 -4 -10 -6 0 -20 -9 -31 -20 l-20 -20 0 20 c0 11 6 20 13 21 8
0 8 2 1 5 -7 3 -24 -6 -39 -21 -16 -14 -35 -25 -44 -25 -10 0 -22 -5 -29 -12
-9 -9 -12 -6 -12 15 0 40 -20 33 -21 -8 -1 -19 -3 -39 -4 -45 -1 -5 -3 -13 -4
-17 -5 -19 -19 35 -14 55 3 12 0 22 -6 22 -6 0 -11 -4 -11 -10 0 -5 -8 -10
-17 -10 -17 -1 -17 -1 0 -11 9 -5 17 -15 17 -20 0 -6 -4 -7 -10 -4 -6 3 -7 -1
-3 -10 5 -13 7 -14 14 -3 6 9 9 9 9 1 0 -16 -17 -26 -25 -13 -9 15 -22 12 -29
-6 -3 -8 -2 -12 4 -9 6 3 10 2 10 -4 0 -6 -9 -15 -19 -21 -24 -12 -42 -13 -22
-1 7 5 10 14 6 21 -6 9 -10 9 -16 -1 -7 -11 -11 -12 -17 -1 -12 18 -41 4 -48
-24 -3 -13 -8 -24 -11 -24 -11 0 -31 28 -25 35 4 4 -3 2 -16 -4 -12 -7 -27 -9
-32 -6 -6 4 -9 3 -8 -2 2 -4 -1 -9 -7 -10 -5 -1 -12 -11 -17 -22 -4 -12 -13
-18 -22 -15 -8 3 -17 0 -21 -6 -6 -9 -10 -9 -16 1 -7 11 -9 10 -9 -3 0 -10 -5
-18 -11 -18 -5 0 -8 4 -5 8 2 4 1 14 -5 22 -7 12 -9 11 -9 -5 -1 -18 -1 -19
-11 -2 -12 21 -23 22 -43 2 -9 -9 -17 -11 -21 -5 -3 5 -1 10 4 10 6 0 11 4 11
10 0 5 -16 0 -36 -11 -40 -22 -67 -13 -40 14 9 9 16 20 16 26 0 17 -40 -11
-41 -29 0 -9 -2 -10 -5 -3 -3 6 2 23 10 36 15 22 13 37 -5 37 -4 0 -9 -6 -12
-12 -2 -7 -3 -5 -2 4 3 17 -37 58 -56 58 -5 0 -7 5 -4 10 4 6 10 8 15 5 5 -3
8 3 7 14 -1 20 -17 23 -29 6 -4 -5 -8 2 -8 18 0 15 -3 27 -7 27 -5 0 -16 14
-25 30 -10 17 -22 29 -29 28 -6 -2 -14 4 -16 12 -4 13 -3 13 6 0 6 -8 11 -10
11 -5 0 6 -4 15 -8 20 -13 16 -32 65 -24 62 4 -1 9 0 11 3 6 7 -10 54 -21 61
-5 3 -3 13 6 22 10 10 12 18 6 22 -6 3 -7 18 -4 32 4 16 2 28 -7 34 -8 5 -9 9
-3 9 17 0 25 28 12 36 -7 5 -8 2 -3 -6 5 -9 4 -11 -4 -6 -6 4 -8 12 -5 18 4 6
9 24 10 40 3 25 1 29 -14 24 -14 -5 -14 -3 2 9 18 14 18 15 2 15 -9 0 -14 4
-11 10 7 11 -12 51 -29 62 -6 5 -1 8 12 8 12 0 22 5 22 10 0 6 -4 10 -10 10
-5 0 -7 6 -4 13 2 7 -4 21 -15 31 -11 10 -17 25 -14 37 3 10 -2 31 -12 45 -16
26 -16 26 7 19 20 -6 18 -3 -9 20 -18 15 -33 31 -33 38 0 6 10 0 21 -12 17
-18 23 -20 30 -9 7 11 11 10 19 -2 5 -8 10 -10 10 -5 0 6 -14 27 -31 48 -17
20 -24 34 -15 31 8 -3 17 -12 20 -20 3 -9 11 -12 17 -8 7 4 9 3 6 -2 -3 -6 4
-10 16 -11 l22 -1 -22 15 c-13 8 -23 20 -23 25 0 5 10 6 23 3 18 -5 16 -2 -8
14 -16 12 -37 21 -45 21 -13 0 -13 1 0 10 12 7 8 12 -18 23 -18 7 -29 17 -25
21 4 4 -6 2 -22 -4 -25 -9 -31 -8 -42 6 -7 10 -13 13 -13 6 0 -6 -7 -9 -15 -6
-8 4 -13 10 -10 15 3 4 -14 14 -37 20 -27 8 -36 14 -25 16 9 3 15 9 12 14 -4
5 -2 9 2 9 5 0 18 7 29 16 18 15 18 15 -4 11 -13 -3 -37 -1 -54 4 -23 6 -40 5
-61 -6 -38 -19 -40 -19 -25 5 7 10 8 23 4 27 -5 4 -11 2 -13 -4 -3 -7 -9 -13
-15 -13 -6 0 -5 7 3 16 10 12 10 20 1 35 -7 11 -10 25 -6 31 4 6 3 8 -3 5 -6
-4 -17 1 -24 10 -12 14 -12 16 0 9 9 -6 12 -5 9 5 -3 8 -12 13 -22 11 -9 -2
-16 2 -16 9 0 6 -7 8 -16 5 -14 -5 -15 -4 -4 9 8 9 8 15 2 15 -6 0 -14 -5 -17
-10 -4 -6 -11 -8 -16 -4 -5 3 -7 9 -4 14 3 4 1 19 -4 32 -7 16 -10 18 -10 6
-1 -12 -6 -15 -18 -11 -13 5 -15 2 -11 -15 4 -12 2 -22 -2 -22 -17 0 -21 20
-9 42 10 20 10 21 -2 12 -8 -6 -29 -11 -48 -11 -29 0 -31 2 -17 13 15 11 14
14 -14 28 -30 14 -31 14 -25 -2 3 -9 -8 -1 -24 18 -31 37 -40 57 -18 44 8 -5
7 -2 -2 9 -8 10 -16 15 -19 12 -3 -3 -12 5 -20 17 -7 13 -11 15 -8 6 9 -28
-13 -21 -24 8 -7 19 -16 25 -29 21 -12 -3 -23 4 -34 23 -9 15 -14 30 -10 34 3
3 2 6 -4 6 -17 0 -83 67 -83 84 0 10 -6 13 -16 9 -13 -5 -15 -2 -9 18 4 13 11
28 16 34 5 5 9 13 9 19 0 17 -39 -26 -43 -48 -3 -11 -3 5 -2 37 2 43 -1 57
-11 57 -8 0 -14 7 -14 16 0 9 -5 12 -11 8 -7 -4 -10 -1 -7 7 3 8 12 13 21 11
11 -2 15 2 11 12 -5 14 -8 14 -27 1 -26 -18 -47 -20 -25 -2 9 6 19 22 23 35 5
19 3 22 -21 22 -32 0 -25 13 9 15 17 1 23 9 25 33 2 20 -1 32 -9 32 -7 0 -9
-10 -7 -25 5 -25 -14 -36 -27 -15 -3 6 -1 10 4 10 6 0 11 21 11 48 l1 47 24
-30 c19 -23 25 -26 25 -12 0 9 5 17 10 17 6 0 10 5 10 10 0 7 -6 7 -20 0 -21
-11 -20 -11 -25 30 0 8 5 24 12 35 7 11 13 34 13 53 0 20 6 35 15 38 13 5 13
9 3 21 -7 8 -11 34 -10 56 2 29 0 38 -7 28 -5 -8 -7 -20 -4 -28 3 -7 0 -13 -6
-13 -6 0 -11 6 -11 14 0 8 -3 21 -6 30 -4 11 -1 16 10 16 9 0 16 8 16 18 1 16
1 16 11 0 14 -25 32 -23 24 2 -8 24 1 26 23 3 12 -11 13 -18 5 -20 -7 -3 -9
-12 -6 -20 5 -13 2 -15 -12 -10 -16 7 -16 5 -4 -10 12 -15 12 -16 -3 -10 -13
4 -16 1 -14 -19 4 -37 11 -37 25 1 7 19 16 35 21 35 5 0 7 6 4 14 -3 8 -1 17
5 21 7 4 2 16 -14 33 -24 26 -26 43 -3 25 21 -16 48 -23 48 -13 0 6 -7 10 -15
10 -8 0 -15 5 -15 11 0 5 4 8 8 5 5 -3 8 5 7 17 -1 12 2 30 7 41 6 10 6 16 1
13 -4 -3 -16 1 -26 8 -18 13 -18 13 1 19 11 4 26 5 33 4 16 -3 20 34 5 44 -15
10 -1 21 29 21 15 0 25 5 25 14 0 8 5 11 10 8 6 -3 10 -1 10 4 0 6 9 11 20 11
11 0 20 7 20 15 0 8 -4 15 -10 15 -5 0 -10 4 -10 9 0 5 18 7 39 4 37 -5 40 -4
43 23 2 15 9 29 17 32 10 3 11 -2 6 -19 l-6 -24 20 25 c24 30 27 41 6 34 -8
-4 -15 -1 -15 6 0 6 5 8 11 4 8 -4 9 0 4 15 -5 16 -2 21 12 23 33 2 38 3 51
11 14 10 16 -2 2 -23 -8 -13 -11 -13 -19 -1 -9 14 -31 7 -31 -10 0 -6 5 -7 10
-4 6 4 17 2 24 -4 11 -9 17 -3 29 26 9 21 16 30 16 21 1 -27 31 -10 31 18 0
25 27 64 45 64 5 0 4 -4 -4 -9 -8 -5 -11 -16 -8 -26 4 -9 12 -13 18 -9 8 5 8
9 -1 14 -9 6 -7 10 8 14 14 5 19 13 15 29 -4 21 -4 21 8 2 13 -22 45 -55 54
-55 3 0 5 7 5 15 0 8 -7 15 -15 15 -8 0 -15 5 -15 10 0 6 7 10 16 10 13 0 15
7 9 38 -4 20 -11 43 -17 50 -7 8 -7 12 0 12 6 0 15 -12 21 -27 l11 -28 -5 28
c-4 19 -1 27 9 27 12 0 30 27 26 39 0 1 17 12 40 23 22 11 40 26 40 34 0 8 7
14 15 14 8 0 15 -8 15 -17 0 -16 14 -10 16 8 1 5 2 14 3 19 0 6 10 10 22 10
12 0 19 5 16 13 -2 6 -10 11 -16 10 -6 -2 -11 4 -11 12 0 18 27 20 33 3 2 -7
8 -10 12 -6 4 4 2 14 -5 23 -7 8 -9 15 -4 15 5 0 0 8 -11 17 -18 14 -18 15 -2
9 13 -4 17 -2 15 6 -3 7 -13 15 -24 16 -10 2 -23 9 -29 14 -7 7 -2 8 15 2 14
-4 33 -8 43 -8 9 0 17 -6 17 -13 0 -6 5 -15 11 -19 8 -4 9 0 4 15 -4 15 -2 21
9 21 8 0 16 -6 19 -12 2 -8 3 -7 3 2 -1 8 -15 18 -31 21 -17 4 -24 7 -17 8 6
0 12 11 11 24 0 21 -1 21 -9 2 -5 -11 -9 -14 -9 -6 -1 7 -7 11 -16 7 -8 -3
-15 -1 -15 4 0 6 6 10 14 10 8 0 21 3 30 6 12 4 16 0 16 -15 0 -23 15 -28 24
-8 4 8 5 7 4 -3 -1 -8 2 -23 7 -33 6 -14 10 -15 23 -5 13 11 14 10 8 -8 -5
-17 -1 -24 24 -34 16 -7 30 -17 30 -22 0 -15 -32 -21 -40 -7 -14 21 -23 4 -11
-20 6 -12 16 -30 21 -41 8 -16 7 -22 -5 -26 -22 -9 -9 -23 15 -17 21 6 27 37
10 48 -5 3 -10 13 -10 21 0 8 4 13 9 9 5 -3 12 -1 16 4 3 6 11 8 18 5 7 -2 21
3 32 12 18 14 18 15 2 10 -11 -3 -16 -2 -12 4 3 6 18 7 32 4 23 -6 25 -5 17
17 -4 13 -8 31 -9 39 0 9 -4 20 -8 27 -4 6 -1 13 7 16 10 4 16 -6 20 -36 9
-66 12 -76 21 -84 4 -5 6 -3 3 2 -8 14 9 55 22 55 5 0 10 -7 10 -15 0 -15 25
-21 33 -7 7 10 -23 82 -34 82 -5 0 -9 5 -9 12 0 9 3 9 12 0 9 -9 15 -9 26 1
12 10 14 9 8 -9 -6 -21 17 -64 29 -53 3 4 -1 14 -10 22 -9 10 -11 18 -5 22 5
3 10 18 10 33 l1 27 14 -25 c11 -19 14 -21 15 -7 0 16 1 16 18 0 15 -15 15
-19 3 -24 -12 -4 -11 -7 3 -12 28 -11 33 -9 40 16 l7 22 11 -22 c11 -24 28
-31 28 -13 0 6 7 10 15 10 9 0 12 6 8 17 -4 11 -3 14 5 9 7 -4 12 -3 12 2 0 6
10 8 22 4 14 -3 19 -2 14 6 -4 7 -4 12 1 13 43 4 54 7 60 12 3 4 -3 7 -15 7
-25 0 -27 6 -9 24 15 16 113 12 133 -5 8 -7 13 -6 16 3 3 7 -2 18 -11 25 -13
10 -14 14 -3 25 11 11 15 10 24 -6 8 -15 12 -16 19 -5 5 9 9 10 9 2 0 -6 9 -9
22 -5 17 4 20 2 15 -11 -3 -10 -2 -27 3 -39 8 -20 9 -18 9 14 1 20 -3 40 -9
43 -15 9 -12 25 5 25 8 0 15 4 15 10 0 5 7 7 15 4 8 -4 15 -11 15 -16 0 -6 -7
-8 -15 -5 -8 4 -17 1 -21 -5 -4 -6 -3 -8 4 -4 6 3 17 -1 25 -9 9 -8 21 -15 28
-15 7 0 4 6 -7 15 -12 9 -14 14 -5 15 7 0 11 6 8 13 -3 7 3 13 13 13 10 0 16
-5 13 -12 -2 -6 3 -14 11 -17 12 -5 16 0 16 18 0 19 5 25 23 25 18 0 19 -2 7
-10 -13 -9 -13 -10 0 -11 8 -1 30 -1 48 0 23 1 32 -2 30 -11 -2 -8 2 -15 7
-18 6 -2 12 9 15 26 4 19 8 25 13 17 5 -7 6 -17 3 -22 -10 -16 36 -20 52 -4
13 12 13 16 1 23 -7 5 -11 11 -8 14 9 9 49 -24 49 -40 0 -13 5 -12 33 4 23 15
37 18 49 11 11 -6 19 -6 23 1 3 6 -1 13 -9 16 -9 3 -13 11 -10 16 9 14 45 -44
39 -61z m-570 29 c3 -5 1 -10 -4 -10 -6 0 -11 5 -11 10 0 6 2 10 4 10 3 0 8
-4 11 -10z m671 -25 c-6 -17 -26 -12 -26 6 0 6 5 7 10 4 6 -3 10 -1 10 6 0 7
3 10 6 6 4 -3 4 -13 0 -22z m70 10 c-11 -8 -27 -15 -35 -15 -9 1 -2 7 14 15
39 18 44 18 21 0z m1016 -27 c-7 -7 -12 -8 -12 -2 0 14 12 26 19 19 2 -3 -1
-11 -7 -17z m112 -18 c-6 -6 -10 -3 -10 10 0 13 4 16 10 10 7 -7 7 -13 0 -20z
m-949 10 c3 -5 -1 -10 -9 -10 -9 0 -16 5 -16 10 0 6 4 10 9 10 6 0 13 -4 16
-10z m895 0 c-8 -5 -24 -10 -35 -10 -17 0 -17 2 -5 10 8 5 24 10 35 10 17 0
17 -2 5 -10z m-780 -10 c0 -5 -4 -10 -10 -10 -5 0 -10 5 -10 10 0 6 5 10 10
10 6 0 10 -4 10 -10z m1008 -31 c-3 -8 -7 -3 -11 10 -4 17 -3 21 5 13 5 -5 8
-16 6 -23z m149 -6 c1 -32 -1 -34 -8 -15 -7 18 -3 52 5 52 1 0 2 -17 3 -37z
m-1197 23 c0 -3 -4 -8 -10 -11 -5 -3 -10 -1 -10 4 0 6 5 11 10 11 6 0 10 -2
10 -4z m330 -18 c0 -13 -23 -5 -28 10 -2 7 2 10 12 6 9 -3 16 -11 16 -16z
m755 1 c-4 -5 0 -9 7 -9 10 0 9 -3 -2 -9 -19 -13 -29 -5 -23 19 3 11 9 17 14
14 5 -3 7 -10 4 -15z m-2740 1 c3 -5 1 -10 -4 -10 -6 0 -11 5 -11 10 0 6 2 10
4 10 3 0 8 -4 11 -10z m270 -10 c3 -5 2 -10 -4 -10 -5 0 -13 5 -16 10 -3 6 -2
10 4 10 5 0 13 -4 16 -10z m82 -27 c-3 -10 -5 -4 -5 12 0 17 2 24 5 18 2 -7 2
-21 0 -30z m33 5 c0 -5 -4 -8 -10 -8 -5 0 -10 10 -10 23 0 18 2 19 10 7 5 -8
10 -18 10 -22z m-410 18 c0 -2 -7 -7 -16 -10 -8 -3 -12 -2 -9 4 6 10 25 14 25
6z m-70 -16 c0 -5 -5 -10 -11 -10 -5 0 -7 5 -4 10 3 6 8 10 11 10 2 0 4 -4 4
-10z m204 3 c-5 -5 -12 -12 -16 -18 -4 -6 -8 -2 -8 8 0 9 7 17 17 17 9 0 12
-3 7 -7z m-51 -76 c7 -2 4 -3 -6 -1 -13 2 -17 -2 -13 -13 4 -9 1 -13 -6 -11
-13 5 -20 55 -10 73 3 5 10 -3 14 -17 5 -15 15 -29 21 -31z m-58 23 c3 -5 -1
-10 -9 -10 -8 0 -18 5 -21 10 -3 6 1 10 9 10 8 0 18 -4 21 -10z m190 -19 c-6
-5 -25 10 -25 20 0 5 6 4 14 -3 8 -7 12 -15 11 -17z m2739 -7 c3 -8 2 -12 -4
-9 -6 3 -10 10 -10 16 0 14 7 11 14 -7z m50 -38 c-6 -15 -24 -23 -24 -11 0 8
24 34 28 30 1 -1 0 -10 -4 -19z m-2914 -22 c0 -8 -4 -12 -10 -9 -5 3 -10 13
-10 21 0 8 5 12 10 9 6 -3 10 -13 10 -21z m-266 -48 c-3 -9 2 -16 13 -18 13
-3 11 -5 -9 -10 -15 -3 -26 -2 -24 1 1 3 6 14 9 24 4 9 9 17 11 17 3 0 3 -6 0
-14z m3345 -55 c-15 -5 -22 6 -14 19 6 9 10 9 16 -1 5 -8 4 -15 -2 -18z m31
-15 c0 -22 -2 -23 -25 -13 -23 11 -23 12 -5 15 11 2 20 8 20 13 0 5 2 9 5 9 3
0 5 -11 5 -24z m-3440 -17 c0 -6 -4 -7 -10 -4 -5 3 -10 11 -10 16 0 6 5 7 10
4 6 -3 10 -11 10 -16z m-40 -49 c0 -5 -4 -10 -10 -10 -5 0 -10 5 -10 10 0 6 5
10 10 10 6 0 10 -4 10 -10z m3596 -33 c18 7 18 -7 -1 -31 -8 -11 -15 -14 -15
-7 0 7 -5 9 -12 5 -8 -5 -9 -2 -5 10 4 10 7 23 8 29 0 9 2 9 5 0 3 -7 12 -9
20 -6z m29 -39 c-6 -68 -7 -73 -12 -60 -2 6 -9 12 -15 12 -6 0 -7 -7 -4 -15 7
-20 -23 -32 -35 -14 -5 8 -8 19 -8 24 0 6 3 4 6 -2 8 -21 20 -15 27 13 5 18
12 24 22 20 9 -3 12 -2 9 4 -6 9 2 50 10 50 1 0 1 -15 0 -32z m-3759 -9 c3 -6
1 -16 -5 -22 -9 -9 -11 -8 -6 6 4 9 3 17 -3 17 -6 0 -12 -6 -15 -12 -2 -7 -8
-9 -13 -5 -5 4 -2 12 6 17 20 13 27 12 36 -1z m84 -4 c23 -28 -3 -36 -29 -9
-22 23 -22 24 -3 24 11 0 25 -7 32 -15z m3680 -85 c0 -5 7 -7 15 -4 8 4 15 1
15 -5 0 -6 -5 -11 -11 -11 -7 0 -18 -8 -25 -17 -12 -16 -13 -17 -14 -1 0 9 -3
23 -6 32 -4 11 -1 16 10 16 9 0 16 -4 16 -10z m-3830 -10 c0 -5 -5 -10 -11
-10 -5 0 -7 5 -4 10 3 6 8 10 11 10 2 0 4 -4 4 -10z m-145 -10 c3 -5 1 -10 -4
-10 -6 0 -11 5 -11 10 0 6 2 10 4 10 3 0 8 -4 11 -10z m110 -19 c-6 -5 -25 10
-25 20 0 5 6 4 14 -3 8 -7 12 -15 11 -17z m-115 -41 c0 -5 -5 -10 -11 -10 -5
0 -7 5 -4 10 3 6 8 10 11 10 2 0 4 -4 4 -10z m-40 -28 c0 -5 -7 -9 -15 -9 -8
0 -12 4 -9 9 3 4 9 8 15 8 5 0 9 -4 9 -8z m4026 -7 c-3 -8 0 -15 6 -15 6 0 9
-3 5 -6 -10 -11 -26 6 -20 21 3 8 7 15 10 15 3 0 3 -7 -1 -15z m-4032 -39 c-3
-9 -10 -16 -15 -16 -14 0 -11 28 4 33 16 6 19 3 11 -17z m4076 10 c0 -3 -4 -8
-10 -11 -5 -3 -10 -1 -10 4 0 6 5 11 10 11 6 0 10 -2 10 -4z m-4140 -16 c0 -5
-4 -10 -10 -10 -5 0 -10 5 -10 10 0 6 5 10 10 10 6 0 10 -4 10 -10z m-89 -210
c5 0 9 -5 9 -11 0 -6 -7 -8 -16 -5 -14 5 -15 4 -5 -7 9 -11 8 -17 -4 -27 -9
-7 -18 -10 -22 -6 -3 3 -1 6 5 6 14 0 11 41 -3 53 -6 5 -2 6 8 3 10 -3 23 -6
28 -6z m-91 -235 c0 -8 5 -15 11 -15 5 0 7 -5 4 -10 -8 -13 -22 -5 -35 21 -9
15 -7 19 5 19 8 0 15 -7 15 -15z m-10 -65 c0 -5 -4 -10 -10 -10 -5 0 -10 5
-10 10 0 6 5 10 10 10 6 0 10 -4 10 -10z m-53 -52 c-3 -8 -6 -5 -6 6 -1 11 2
17 5 13 3 -3 4 -12 1 -19z m4243 -18 c-16 -31 -23 -19 -9 16 6 16 13 24 16 17
2 -7 -1 -22 -7 -33z m-4229 -33 c-10 -9 -11 -8 -5 6 3 10 9 15 12 12 3 -3 0
-11 -7 -18z m-1 -21 c0 -3 -4 -8 -10 -11 -5 -3 -10 -1 -10 4 0 6 5 11 10 11 6
0 10 -2 10 -4z m-40 -15 c0 -5 -6 -14 -14 -20 -12 -10 -13 -8 -9 8 5 21 23 30
23 12z m12 -33 c-7 -7 -12 -8 -12 -2 0 14 12 26 19 19 2 -3 -1 -11 -7 -17z m3
-38 c3 -5 -1 -10 -9 -10 -9 0 -16 5 -16 10 0 6 4 10 9 10 6 0 13 -4 16 -10z
m4303 -33 c-4 -25 -28 -35 -28 -12 0 9 5 13 10 10 6 -3 10 -1 10 4 0 6 -4 11
-10 11 -5 0 -10 7 -10 16 0 14 3 14 15 4 9 -7 15 -22 13 -33z m37 12 c11 -17
-1 -21 -15 -4 -8 9 -8 15 -2 15 6 0 14 -5 17 -11z m58 -19 c3 -11 1 -20 -4
-20 -5 0 -9 9 -9 20 0 11 2 20 4 20 2 0 6 -9 9 -20z m-4363 -26 c0 -8 -4 -12
-10 -9 -5 3 -10 10 -10 16 0 5 5 9 10 9 6 0 10 -7 10 -16z m4390 -89 c0 -8 -2
-15 -4 -15 -2 0 -6 7 -10 15 -3 8 -1 15 4 15 6 0 10 -7 10 -15z m-13 -57 c-3
-8 -6 -5 -6 6 -1 11 2 17 5 13 3 -3 4 -12 1 -19z m-4343 -13 c-4 -8 -10 -12
-15 -9 -11 6 -2 24 11 24 5 0 7 -7 4 -15z m4303 -95 c1 -11 -2 -20 -8 -20 -5
0 -9 9 -9 20 0 11 4 20 8 20 4 0 8 -9 9 -20z m63 -4 c0 -3 -4 -8 -10 -11 -5
-3 -10 -1 -10 4 0 6 5 11 10 11 6 0 10 -2 10 -4z m-4532 -83 c-10 -2 -26 -2
-35 0 -10 3 -2 5 17 5 19 0 27 -2 18 -5z m4507 -31 c-6 -7 -35 18 -35 31 0 5
9 2 20 -8 11 -10 18 -20 15 -23z m-4315 -22 c20 -6 21 -8 5 -8 -11 0 -29 3
-40 8 -25 11 1 11 35 0z m85 -20 c10 -11 16 -20 13 -20 -3 0 -13 9 -23 20 -10
11 -16 20 -13 20 3 0 13 -9 23 -20z m-858 -36 c-3 -3 -12 -4 -19 -1 -8 3 -5 6
6 6 11 1 17 -2 13 -5z m983 -50 c0 -2 -13 2 -30 11 -16 9 -30 18 -30 21 0 2
14 -2 30 -11 17 -9 30 -18 30 -21z m25 7 c3 -5 2 -12 -3 -15 -5 -3 -9 1 -9 9
0 17 3 19 12 6z m115 -61 c0 -5 -4 -10 -9 -10 -6 0 -13 5 -16 10 -3 6 1 10 9
10 9 0 16 -4 16 -10z m3970 -20 c0 -5 -5 -10 -11 -10 -5 0 -7 5 -4 10 3 6 8
10 11 10 2 0 4 -4 4 -10z m-30 -165 c5 0 9 -4 8 -10 -2 -5 -9 -10 -17 -10 -25
0 -24 -25 1 -26 21 0 22 -1 3 -9 -23 -9 -30 -4 -40 29 -5 16 -4 21 4 17 7 -5
11 2 11 16 0 18 2 20 10 8 5 -8 14 -15 20 -15z m-3606 -16 c-3 -5 -17 -8 -32
-8 -24 2 -24 2 -4 6 12 2 20 9 17 14 -3 5 1 6 9 3 9 -3 13 -10 10 -15z m3671
-39 c-3 -5 -14 -10 -23 -9 -14 0 -13 2 3 9 27 11 27 11 20 0z m-115 -60 c0 -5
-4 -10 -10 -10 -5 0 -10 5 -10 10 0 6 5 10 10 10 6 0 10 -4 10 -10z m121 -67
c-12 -20 -14 -14 -5 12 4 9 9 14 11 11 3 -2 0 -13 -6 -23z m39 -36 c0 -5 -4
-5 -10 -2 -5 3 -10 14 -10 23 0 15 2 15 10 2 5 -8 10 -19 10 -23z m37 -109
c-3 -8 -6 -5 -6 6 -1 11 2 17 5 13 3 -3 4 -12 1 -19z m-3542 1 c11 -17 -1 -21
-15 -4 -8 9 -8 15 -2 15 6 0 14 -5 17 -11z m-1814 -172 c-10 -9 -11 -8 -5 6 3
10 9 15 12 12 3 -3 0 -11 -7 -18z m115 -44 c-10 -26 -18 -8 -9 23 5 21 8 24
11 11 2 -10 1 -25 -2 -34z m1104 -123 c0 -5 -5 -10 -11 -10 -5 0 -7 5 -4 10 3
6 8 10 11 10 2 0 4 -4 4 -10z m3556 -11 c3 -6 1 -16 -6 -22 -10 -9 -11 -9 -6
1 4 6 2 12 -3 12 -6 0 -11 5 -11 10 0 13 17 13 26 -1z m-189 -24 c-4 -8 -11
-15 -17 -15 -6 0 -6 7 2 20 14 22 24 19 15 -5z m118 15 c-3 -5 -10 -10 -16
-10 -5 0 -9 5 -9 10 0 6 7 10 16 10 8 0 12 -4 9 -10z m-3928 -72 c-3 -8 -6 -5
-6 6 -1 11 2 17 5 13 3 -3 4 -12 1 -19z m436 -3 c-3 -9 -8 -14 -10 -11 -3 3
-2 9 2 15 9 16 15 13 8 -4z m234 -49 c0 -19 -4 -34 -8 -33 -7 2 -9 -3 -9 -29
0 -10 7 -7 24 12 22 26 24 27 40 11 22 -22 29 -22 22 1 -3 9 -1 24 4 32 8 12
10 12 10 -5 0 -17 2 -17 10 -5 8 12 10 11 10 -7 0 -13 4 -23 10 -23 5 0 7 7 4
15 -4 8 -2 15 3 15 9 0 37 -59 34 -72 0 -5 3 -8 8 -8 6 0 16 -12 24 -27 7 -16
19 -27 27 -25 7 2 17 -3 21 -10 13 -19 11 -28 -5 -28 -11 0 -12 -8 -4 -42 5
-24 7 -53 5 -66 -6 -31 11 -39 22 -10 10 23 10 22 10 -4 1 -16 -4 -28 -11 -28
-7 0 -4 -7 7 -16 19 -15 19 -15 -10 -8 -25 6 -28 5 -19 -7 14 -17 24 -79 13
-79 -4 0 -2 -13 4 -30 6 -16 14 -30 17 -30 3 0 5 -15 4 -32 -1 -18 1 -39 6
-48 4 -8 11 -42 14 -75 3 -33 9 -80 12 -104 4 -35 1 -48 -16 -66 -11 -12 -18
-29 -15 -37 5 -12 -1 -14 -26 -10 -21 3 -30 1 -25 -6 8 -13 -54 -27 -86 -19
-15 4 -31 24 -47 57 -24 51 -69 87 -94 76 -7 -2 -4 -5 6 -5 24 -1 61 -42 86
-96 25 -54 27 -121 6 -258 -31 -209 -105 -287 -305 -323 l-75 -14 61 5 c120 9
232 68 279 149 31 53 65 205 65 292 0 65 6 74 54 74 12 0 32 7 45 16 50 36
132 74 143 68 8 -5 9 -1 4 12 -10 23 -10 23 7 105 16 76 17 77 71 144 21 25
26 28 40 16 9 -8 19 -11 23 -7 8 8 44 -24 38 -34 -3 -5 -1 -19 4 -32 8 -18 10
-19 10 -5 1 15 3 16 15 5 12 -11 11 -15 -8 -25 -11 -7 -16 -12 -11 -13 6 0 16
-13 23 -30 8 -16 20 -30 28 -30 8 0 14 -4 14 -10 0 -5 -8 -7 -17 -4 -10 3 -5
-4 10 -17 22 -17 25 -24 15 -30 -10 -7 -9 -9 5 -9 9 0 17 -4 17 -10 0 -5 -5
-10 -11 -10 -6 0 -9 -6 -6 -12 2 -7 10 -12 16 -10 7 1 10 -2 6 -7 -3 -6 -12
-8 -20 -4 -20 7 -19 -12 1 -32 9 -9 13 -19 10 -23 -4 -3 -10 -2 -14 4 -4 6
-15 14 -26 17 -13 5 -16 12 -11 25 14 32 18 75 7 68 -7 -4 -17 12 -26 41 -20
64 -20 40 0 -36 8 -34 12 -66 8 -72 -3 -6 6 -23 20 -38 24 -25 25 -31 16 -57
-8 -20 -13 -25 -19 -15 -12 18 -20 1 -16 -34 2 -16 -1 -35 -7 -42 -6 -7 -7
-13 -2 -13 11 0 11 -101 0 -118 -4 -7 -4 -17 0 -24 4 -6 3 -8 -3 -5 -6 4 -10
-12 -10 -38 0 -25 4 -45 8 -45 3 0 9 -9 12 -20 3 -11 1 -20 -4 -20 -5 0 -9
-11 -9 -25 0 -44 -29 -99 -65 -124 -29 -20 -44 -23 -87 -19 -29 3 -60 8 -69
12 -13 6 -20 -24 -50 -211 -37 -237 -42 -352 -20 -473 17 -92 9 -375 -13 -495
-20 -108 -96 -430 -166 -710 -32 -126 -75 -309 -95 -405 -20 -96 -45 -215 -55
-265 -11 -49 -49 -247 -86 -440 -156 -832 -177 -940 -214 -1125 -21 -107 -41
-211 -44 -230 -11 -64 -26 -153 -61 -352 -19 -109 -40 -257 -46 -330 -12 -141
-26 -235 -28 -185 -1 15 -4 27 -9 27 -10 0 -42 -37 -42 -49 0 -22 -61 -72 -87
-73 -31 0 -178 43 -215 63 -13 7 -36 15 -53 19 -24 5 -33 14 -45 48 -9 26 -21
42 -30 42 -19 0 -53 30 -77 68 -32 50 -131 166 -302 352 -22 25 -41 51 -41 57
0 7 -5 13 -11 13 -6 0 -9 7 -6 14 4 10 1 13 -9 9 -21 -8 -17 6 9 29 12 11 16
17 10 13 -7 -3 -13 0 -13 7 0 7 -6 25 -14 40 -13 24 -18 43 -30 103 -3 11 -10
40 -16 65 -16 60 -20 119 -10 146 5 13 4 31 -3 45 -14 27 -11 69 4 69 6 0 7
-5 3 -12 -5 -7 -3 -8 6 -3 10 6 10 11 -3 20 -21 15 -22 36 -2 29 18 -7 20 17
3 34 -7 7 -8 12 -2 12 9 0 14 19 17 67 0 12 5 19 9 17 5 -3 9 9 8 28 0 59 7
153 13 168 3 8 12 119 21 245 14 207 14 245 0 380 -23 226 -24 290 -3 375 28
115 26 143 -16 177 l-34 28 51 123 51 123 -23 16 c-18 13 -21 22 -16 51 3 20
1 55 -4 78 -6 24 -12 73 -14 111 -21 306 -25 394 -25 508 1 113 11 240 19 225
3 -6 6 -25 19 -135 23 -189 30 -232 51 -305 11 -41 28 -80 36 -87 16 -12 22
-30 24 -73 0 -22 2 -23 11 -7 18 30 27 18 18 -25 -4 -24 -8 -56 -8 -73 l0 -30
12 29 c12 27 14 28 29 12 10 -9 30 -39 45 -66 15 -28 32 -50 37 -50 5 0 52
-44 105 -98 91 -93 145 -131 214 -147 l27 -7 -27 31 c-15 17 -33 31 -40 31 -8
0 -13 12 -13 30 0 39 27 50 123 50 81 0 130 14 178 51 28 22 33 32 35 75 1 27
3 49 5 49 9 0 3 178 -8 210 -12 36 -12 41 5 55 24 19 62 86 62 109 0 9 9 27
21 40 12 12 18 25 15 28 -3 4 0 13 8 22 26 30 56 92 50 103 -5 7 -2 8 5 4 8
-5 11 -3 9 5 -2 14 24 60 52 90 31 33 66 75 83 101 9 15 36 50 60 77 23 27 58
71 77 98 19 26 72 94 118 150 45 55 82 104 82 108 0 3 11 21 25 39 14 18 25
38 25 44 0 16 -52 -44 -126 -143 -32 -44 -95 -117 -139 -163 -84 -88 -254
-232 -273 -232 -7 0 -12 -4 -12 -8 0 -20 -112 -35 -279 -36 -194 -1 -167 -7
-286 67 -11 6 -42 33 -70 59 -59 56 -56 73 16 98 24 9 55 21 69 28 14 6 65 21
114 32 49 11 94 24 100 29 6 5 26 12 45 16 45 10 141 54 141 66 0 5 -8 9 -19
9 -10 0 -24 6 -30 13 -13 17 -99 37 -183 43 -102 7 -134 16 -155 43 -19 25
-16 29 27 36 22 4 40 10 40 14 0 4 46 15 103 25 183 31 281 54 342 80 45 19
77 26 131 26 69 0 72 1 77 26 7 36 -2 64 -22 65 -56 4 -87 -2 -117 -23 -31
-23 -37 -23 -141 -15 -106 8 -220 -3 -232 -21 -3 -5 -15 -7 -26 -6 -11 2 -38
6 -60 10 -22 3 -49 9 -60 14 -11 6 -51 11 -90 12 -63 3 -70 5 -73 24 -3 19 3
22 48 28 32 4 57 14 68 26 9 11 24 20 34 20 10 0 18 4 18 8 0 11 55 42 74 42
9 0 16 -5 16 -11 0 -14 25 -39 39 -39 6 0 11 15 11 34 0 40 55 103 99 112 62
13 112 37 131 64 11 15 20 31 20 34 0 11 -80 6 -117 -8 -52 -20 -159 -27 -213
-15 -25 6 -72 24 -105 41 -46 23 -73 31 -115 31 -62 -1 -80 9 -80 43 0 30 43
97 76 119 23 15 25 21 23 108 -1 70 3 105 19 147 33 90 34 93 42 80 4 -7 16
10 30 41 17 40 21 64 17 100 l-6 47 37 6 c20 3 61 6 90 6 46 0 55 -3 59 -20 3
-11 9 -20 15 -20 5 0 8 -19 7 -42 -1 -55 6 -84 20 -81 6 2 28 -30 48 -70 49
-93 48 -91 32 -82 -8 5 -12 6 -9 2 124 -143 155 -167 214 -167 81 0 86 22 9
39 -32 7 -65 17 -73 22 -8 4 -29 16 -47 25 -28 14 -73 54 -48 43 6 -3 35 -17
65 -31 30 -15 69 -29 85 -32 17 -4 5 3 -25 14 -100 37 -144 78 -194 182 -78
161 -85 268 -23 351 18 23 52 52 77 64 53 26 170 51 278 59 42 4 84 10 92 15
24 14 -95 10 -200 -6 -52 -8 -96 -12 -99 -10 -2 3 2 5 9 5 7 0 22 7 32 17 11
10 18 12 18 4 0 -8 5 -9 19 -1 11 5 29 10 40 10 10 0 32 6 48 14 15 8 39 19
53 25 43 19 90 48 84 53 -2 3 -23 2 -44 -2 -22 -4 -43 -3 -46 1 -10 17 -76 9
-158 -17 -122 -40 -132 -44 -118 -53 9 -5 4 -12 -15 -22 -32 -16 -53 -40 -47
-51 9 -14 24 -8 25 10 0 14 2 14 8 -3 7 -16 1 -26 -26 -49 -35 -29 -83 -112
-83 -143 0 -27 -48 -45 -90 -33 -19 6 -57 10 -83 10 l-48 0 2 63 c2 53 -2 69
-22 96 -13 17 -29 29 -35 27 -8 -3 -11 2 -9 15 2 12 -2 19 -11 19 -8 0 -22 8
-32 18 -26 25 -69 52 -85 52 -28 0 -46 43 -37 88 6 33 5 40 -5 32 -10 -8 -14
1 -20 37 -5 37 -4 49 9 59 9 6 16 18 16 26 0 8 12 25 26 39 l27 24 -7 -38 c-4
-21 -9 -46 -12 -55 -2 -9 3 -2 11 16 12 26 18 30 29 20 15 -14 16 -40 1 -50
-5 -4 -2 -14 8 -25 13 -15 15 -31 12 -74 -4 -39 -3 -48 4 -33 12 28 31 40 31
20 0 -8 5 -18 10 -21 7 -4 9 12 6 47 -2 29 -1 38 1 20 3 -23 9 -32 17 -29 8 3
21 -8 31 -26 14 -27 23 -32 59 -35 51 -3 98 13 152 53 38 28 64 64 64 90 0 6
8 17 18 26 9 8 25 26 35 39 17 24 17 24 12 3 -14 -60 -14 -65 1 -33 19 40 31
24 16 -20 -9 -23 -8 -28 3 -23 8 3 27 38 42 79 15 41 31 74 34 74 14 0 17 -30
10 -84 -6 -46 -5 -54 6 -45 18 16 16 3 -8 -60 l-20 -54 35 29 c19 16 35 34 36
39 1 13 39 63 40 52 0 -4 -7 -22 -16 -39 l-16 -30 26 18 c14 11 33 34 42 53
12 25 18 30 25 20 7 -11 9 -11 9 2 0 9 7 20 16 23 26 10 34 7 28 -11 -5 -17
-5 -17 6 0 14 21 30 22 30 1 0 -10 6 -14 15 -10 18 7 20 -15 3 -32 -9 -9 -8
-12 4 -12 9 0 18 4 20 9 2 5 10 11 18 13 8 2 18 14 21 28 l7 25 1 -27 c1 -21
6 -28 20 -28 18 0 19 5 14 57 -5 41 -3 54 5 49 7 -4 12 -20 12 -37 0 -16 4
-29 10 -29 6 0 7 22 4 54 -3 32 -1 57 6 61 6 4 10 -8 11 -32 1 -32 3 -28 15
28 9 44 11 80 6 105 -5 22 -4 58 1 82 6 28 5 53 -2 73 -9 26 -8 30 3 26 8 -3
17 1 20 10 4 9 9 13 13 10 3 -4 1 -12 -5 -19 -5 -7 -13 -55 -17 -107 -5 -74
-4 -92 7 -89 8 3 14 23 15 54 2 82 3 85 13 79 6 -3 10 -2 10 4 0 5 -5 11 -11
13 -8 3 -9 15 -4 37 4 20 12 31 20 27 17 -6 35 13 28 32 -5 11 -3 13 7 7 9 -5
11 -4 6 3 -5 9 10 39 21 42 0 0 1 -15 0 -34z m-144 -23 c-7 -2 -9 -11 -6 -19
3 -8 0 -14 -6 -14 -6 0 -11 6 -11 13 0 16 22 39 29 30 3 -3 1 -8 -6 -10z m24
-15 c-3 -7 -5 -2 -5 12 0 14 2 19 5 13 2 -7 2 -19 0 -25z m54 9 c-10 -9 -11
-8 -5 6 3 10 9 15 12 12 3 -3 0 -11 -7 -18z m290 6 c13 -16 12 -17 -3 -4 -17
13 -22 21 -14 21 2 0 10 -8 17 -17z m-36 -45 c26 -58 28 -78 5 -48 -11 14 -20
34 -20 46 0 11 -5 25 -12 32 -7 7 -8 12 -2 12 6 0 19 -19 29 -42z m50 -48 c7
-24 6 -24 -8 -5 -8 11 -18 31 -22 45 -7 24 -6 24 8 5 8 -11 18 -31 22 -45z
m15 28 c0 -6 -7 -5 -15 2 -8 7 -15 17 -15 22 0 6 7 5 15 -2 8 -7 15 -17 15
-22z m-517 -18 c-3 -12 -8 -19 -11 -16 -5 6 5 36 12 36 2 0 2 -9 -1 -20z m783
-85 c3 -19 -24 -27 -44 -15 -14 9 -13 10 6 5 21 -6 28 3 22 30 -1 6 2 6 6 2 4
-4 9 -14 10 -22z m-245 -2 c13 -16 12 -17 -3 -4 -17 13 -22 21 -14 21 2 0 10
-8 17 -17z m-442 -51 c5 -26 13 -56 17 -66 5 -13 4 -17 -3 -13 -6 4 -14 24
-18 44 -3 21 -9 48 -12 61 -3 12 -3 22 0 22 3 0 10 -21 16 -48z m438 5 c-7
-21 -22 -9 -23 17 -1 27 0 28 13 10 7 -10 12 -22 10 -27z m1120 -3 c-3 -3 -12
-4 -19 -1 -8 3 -5 6 6 6 11 1 17 -2 13 -5z m-1110 -36 c-3 -8 -6 -5 -6 6 -1
11 2 17 5 13 3 -3 4 -12 1 -19z m987 1 c-4 -7 0 -9 14 -5 11 4 23 2 27 -3 3
-6 0 -8 -8 -5 -8 3 -23 -3 -33 -13 -17 -17 -17 -17 -11 0 4 12 1 17 -11 17
-15 0 -15 2 -2 10 20 13 33 13 24 -1z m183 -31 c-3 -8 -6 -5 -6 6 -1 11 2 17
5 13 3 -3 4 -12 1 -19z m-2761 -35 c-8 -15 -15 -22 -16 -15 0 14 22 53 28 47
2 -2 -3 -16 -12 -32z m120 14 c15 -3 7 -86 -10 -103 -9 -8 -16 -25 -16 -37 -1
-21 -1 -21 -12 -3 -12 21 10 176 22 156 4 -7 11 -12 16 -13z m1011 1 c-3 -8
-6 -5 -6 6 -1 11 2 17 5 13 3 -3 4 -12 1 -19z m2153 -23 c0 -5 -5 -3 -10 5 -5
8 -10 20 -10 25 0 6 5 3 10 -5 5 -8 10 -19 10 -25z m-600 21 c0 -2 -7 -7 -16
-10 -8 -3 -12 -2 -9 4 6 10 25 14 25 6z m20 -36 c0 -5 -2 -10 -4 -10 -3 0 -8
5 -11 10 -3 6 -1 10 4 10 6 0 11 -4 11 -10z m-2008 -32 c-8 -8 -9 -4 -5 13 4
13 8 18 11 10 2 -7 -1 -18 -6 -23z m1976 2 c7 -12 8 -20 2 -20 -5 0 -10 -4
-10 -10 0 -5 7 -10 15 -10 8 0 15 5 15 12 0 6 3 9 6 6 10 -11 -27 -57 -42 -51
-8 3 -14 -1 -14 -8 0 -7 -3 -10 -6 -7 -3 4 0 16 6 28 7 13 8 20 2 16 -6 -3
-13 -2 -17 4 -3 5 1 10 10 10 9 0 13 5 10 10 -3 6 -1 10 6 10 8 0 8 4 -1 15
-7 8 -8 15 -4 15 5 0 15 -9 22 -20z m-2678 -15 c-10 -12 -9 -15 6 -16 12 0 14
-3 6 -6 -10 -4 -9 -8 5 -19 12 -9 14 -13 4 -14 -8 0 -11 -6 -7 -16 3 -8 -5
-36 -18 -61 l-25 -45 -7 36 c-9 51 1 114 22 137 20 22 32 26 14 4z m2345 5 c3
-5 1 -10 -4 -10 -6 0 -11 5 -11 10 0 6 2 10 4 10 3 0 8 -4 11 -10z m-65 -14
c0 -3 -4 -8 -10 -11 -5 -3 -10 -1 -10 4 0 6 5 11 10 11 6 0 10 -2 10 -4z m-70
-16 c-8 -5 -19 -10 -25 -10 -5 0 -3 5 5 10 8 5 20 10 25 10 6 0 3 -5 -5 -10z
m-237 -15 c-3 -9 -8 -14 -10 -11 -3 3 -2 9 2 15 9 16 15 13 8 -4z m552 5 c3
-5 1 -10 -4 -10 -6 0 -11 5 -11 10 0 6 2 10 4 10 3 0 8 -4 11 -10z m39 -5 c-7
-16 -24 -21 -24 -6 0 8 7 13 27 20 1 1 0 -6 -3 -14z m66 -5 c0 -5 -4 -10 -10
-10 -5 0 -10 5 -10 10 0 6 5 10 10 10 6 0 10 -4 10 -10z m-1025 -19 c3 -5 2
-12 -3 -15 -5 -3 -9 1 -9 9 0 17 3 19 12 6z m1275 -1 c0 -5 -2 -10 -4 -10 -3
0 -8 5 -11 10 -3 6 -1 10 4 10 6 0 11 -4 11 -10z m-2841 -44 c-9 -8 -10 -7 -5
7 3 10 7 24 7 30 1 7 3 4 6 -7 3 -10 -1 -23 -8 -30z m2894 37 c3 -5 -6 -9 -20
-10 -19 -1 -22 1 -12 8 17 11 26 11 32 2z m-243 -7 c0 -3 -4 -8 -10 -11 -5 -3
-10 -1 -10 4 0 6 5 11 10 11 6 0 10 -2 10 -4z m170 -17 c0 -6 -6 -9 -14 -6 -8
3 -17 1 -20 -6 -2 -7 -5 -4 -5 6 -1 11 6 17 19 17 11 0 20 -5 20 -11z m-155
-19 c3 -5 1 -10 -4 -10 -6 0 -11 5 -11 10 0 6 2 10 4 10 3 0 8 -4 11 -10z
m-815 -17 c0 -11 -3 -14 -8 -7 -4 6 -14 14 -22 17 -10 4 -8 6 8 6 15 1 22 -5
22 -16z m780 13 c0 -3 -4 -8 -10 -11 -5 -3 -10 -1 -10 4 0 6 5 11 10 11 6 0
10 -2 10 -4z m120 0 c0 -3 -4 -8 -10 -11 -5 -3 -10 -1 -10 4 0 6 5 11 10 11 6
0 10 -2 10 -4z m-160 -22 c0 -9 5 -12 13 -8 9 5 9 3 -1 -7 -11 -12 -14 -12
-22 1 -13 19 -12 30 0 30 6 0 10 -7 10 -16z m-2540 -51 c0 -13 -4 -23 -9 -23
-12 0 -21 38 -14 57 8 20 23 -3 23 -34z m2440 -23 c0 -5 -2 -10 -4 -10 -3 0
-8 5 -11 10 -3 6 -1 10 4 10 6 0 11 -4 11 -10z m-37 -56 c-3 -8 -13 -19 -23
-24 -15 -8 -17 -6 -13 10 3 11 10 17 15 14 6 -4 7 2 3 17 -7 21 -6 22 8 11 9
-8 13 -20 10 -28z m-64 -5 c-18 -11 -39 -11 -39 0 0 5 12 9 26 9 18 0 22 -3
13 -9z m-504 -38 c3 -5 2 -12 -3 -15 -5 -3 -9 1 -9 9 0 17 3 19 12 6z m2655
-35 c0 -2 -7 -6 -15 -10 -8 -3 -15 -1 -15 4 0 6 7 10 15 10 8 0 15 -2 15 -4z
m10 -20 c0 -3 -4 -8 -10 -11 -5 -3 -10 -1 -10 4 0 6 5 11 10 11 6 0 10 -2 10
-4z m-4650 -20 l55 -13 -94 -6 c-52 -4 -133 -7 -180 -6 -72 1 -81 2 -56 11 77
27 196 33 275 14z m780 4 c0 -5 -5 -10 -11 -10 -5 0 -7 5 -4 10 3 6 8 10 11
10 2 0 4 -4 4 -10z m-1585 -10 c3 -5 -1 -10 -9 -10 -9 0 -16 5 -16 10 0 6 4
10 9 10 6 0 13 -4 16 -10z m-64 -53 c-8 -8 -11 -5 -11 9 0 27 14 41 18 19 2
-9 -1 -22 -7 -28z m5449 39 c0 -3 -4 -8 -10 -11 -5 -3 -10 -1 -10 4 0 6 5 11
10 11 6 0 10 -2 10 -4z m-2880 -16 c0 -5 -4 -10 -10 -10 -5 0 -10 5 -10 10 0
6 5 10 10 10 6 0 10 -4 10 -10z m-1447 -27 c24 -10 36 -21 33 -30 -3 -7 -1
-13 3 -13 18 0 70 -94 77 -139 13 -85 -33 -273 -82 -338 -53 -69 -212 -133
-334 -133 -206 0 -303 58 -364 217 -57 152 -72 276 -39 339 40 77 138 104 413
114 209 8 239 6 293 -17z m-673 -6 c0 -2 -10 -12 -22 -23 l-23 -19 19 23 c18
21 26 27 26 19z m-330 -47 c0 -11 -4 -20 -9 -20 -5 0 -7 9 -4 20 3 11 7 20 9
20 2 0 4 -9 4 -20z m243 -12 c4 1 7 -13 8 -30 0 -30 1 -31 9 -10 14 34 19 26
8 -13 -6 -19 -15 -32 -19 -29 -4 2 -19 -1 -34 -8 -19 -9 -28 -9 -37 0 -8 8 -9
12 -1 12 6 0 14 11 17 25 4 14 11 25 16 25 16 0 11 22 -7 37 -16 12 -15 13 7
1 14 -7 28 -11 33 -10z m-279 -126 c-9 -37 -17 -94 -16 -127 0 -52 -1 -56 -9
-30 -12 38 -4 131 18 210 24 82 30 36 7 -53z m192 38 c0 -22 -4 -24 -25 -11
-15 10 -7 31 12 31 7 0 13 -9 13 -20z m112 -95 c11 -103 80 -275 133 -330 25
-27 26 -31 10 -31 -11 0 -17 4 -15 8 9 14 -13 8 -26 -7 -10 -12 -10 -15 1 -15
7 0 2 -8 -11 -17 -14 -9 -29 -23 -33 -30 -12 -20 -50 -53 -60 -53 -5 0 -6 7
-3 16 4 10 -3 23 -20 36 -48 38 -74 141 -81 321 l-6 138 54 -3 c52 -3 54 -4
57 -33z m-169 -57 c-4 -33 11 -140 23 -161 5 -10 7 -21 5 -24 -8 -7 -57 100
-57 124 0 23 19 83 27 83 2 0 3 -10 2 -22z m-43 -144 c-4 -9 -9 -15 -11 -12
-3 3 -3 13 1 22 4 9 9 15 11 12 3 -3 3 -13 -1 -22z m1455 -61 c13 -16 12 -17
-3 -4 -10 7 -18 15 -18 17 0 8 8 3 21 -13z m-1562 -188 c0 -5 -6 -1 -14 9 -9
12 -15 40 -14 70 l1 51 13 -60 c8 -33 14 -64 14 -70z m516 67 c-3 -3 -11 0
-18 7 -9 10 -8 11 6 5 10 -3 15 -9 12 -12z m-5 -44 c11 -12 20 -25 20 -29 0
-4 16 -13 35 -19 43 -14 175 1 299 34 44 12 94 20 109 18 29 -3 29 -4 24 -65
-7 -92 -27 -218 -37 -238 -13 -24 -13 -96 1 -120 13 -25 -13 -71 -35 -63 -8 3
-17 1 -21 -5 -4 -8 -12 -8 -27 0 -11 6 -35 8 -54 4 -53 -10 -72 2 -100 61 -17
36 -33 56 -48 60 -13 3 -29 16 -36 30 -8 13 -17 24 -22 24 -5 0 -25 17 -44 38
-36 38 -62 87 -84 157 -7 22 -17 46 -22 52 -12 15 -2 83 12 83 5 0 18 -10 30
-22z m-273 -50 c-3 -8 -6 -5 -6 6 -1 11 2 17 5 13 3 -3 4 -12 1 -19z m2259
-438 l38 -45 -38 35 c-21 19 -42 44 -48 55 -12 23 -5 17 48 -45z m-3037 -6621
c35 -12 93 -41 128 -65 36 -24 80 -48 99 -53 59 -16 157 -77 225 -139 36 -34
94 -77 128 -97 l63 -37 54 37 54 37 -40 48 c-44 53 -52 98 -24 138 22 32 63
28 125 -14 70 -47 170 -93 239 -110 30 -7 78 -19 105 -27 83 -24 226 -31 344
-17 l107 13 129 -41 c72 -22 165 -50 209 -62 43 -11 125 -41 181 -65 56 -25
126 -50 155 -56 66 -14 171 -6 276 22 93 24 115 18 175 -50 89 -100 138 -221
134 -331 -2 -52 -5 -59 -47 -102 -46 -47 -79 -62 -170 -73 -26 -3 -50 -10 -53
-16 -4 -5 -32 -9 -64 -9 -32 0 -60 -3 -64 -6 -3 -4 -25 -8 -49 -11 -50 -5 -81
-9 -88 -13 -3 -2 -9 -4 -15 -5 -5 -1 -18 -5 -28 -10 -10 -4 -21 -5 -24 -2 -3
4 -14 -5 -25 -18 -11 -14 -24 -25 -31 -25 -11 0 -81 -30 -129 -56 -14 -8 -33
-12 -40 -9 -8 3 -20 -1 -27 -9 -9 -10 -25 -13 -52 -10 -21 3 -39 1 -39 -4 0
-5 -13 -7 -29 -4 -16 2 -32 -1 -36 -8 -5 -8 -10 -8 -20 0 -9 7 -21 7 -41 -2
-16 -6 -56 -13 -89 -14 -33 -1 -135 -5 -227 -9 -125 -6 -175 -4 -198 5 -34 14
-34 14 -19 42 6 11 7 24 2 28 -4 4 -44 10 -88 13 -69 5 -92 12 -165 49 -47 24
-107 58 -133 75 -26 17 -63 34 -82 37 -19 4 -35 11 -35 16 0 6 -9 10 -21 10
-11 0 -29 5 -40 11 -15 7 -24 7 -33 -1 -31 -25 -173 3 -260 51 -13 8 -21 8
-26 -1 -5 -8 -10 -6 -15 7 -7 17 -8 17 -15 -2 -5 -11 -9 -14 -9 -7 -1 6 -8 12
-17 12 -27 0 -118 33 -143 52 -13 10 -31 18 -40 18 -12 0 -10 -6 9 -20 21 -17
23 -21 10 -30 -19 -13 -57 -13 -65 0 -3 6 -15 10 -25 10 -10 0 -23 6 -27 14
-8 12 -45 36 -57 36 -15 0 -4 -18 17 -27 14 -7 28 -26 35 -51 7 -22 19 -45 27
-52 8 -7 15 -16 15 -20 0 -11 -99 -50 -129 -50 -14 0 -37 -6 -51 -13 -30 -16
-92 -12 -137 9 -68 31 -77 95 -39 288 13 66 32 194 41 284 l18 163 -22 20
c-11 11 -21 24 -21 29 0 5 -6 15 -13 22 -26 26 -47 82 -52 142 -5 55 -3 64 18
87 45 50 74 60 162 55 45 -3 108 -14 144 -27z m476 -1065 c84 -14 180 -79 221
-150 19 -33 27 -62 30 -110 2 -39 -1 -64 -7 -64 -6 0 -8 4 -5 8 2 4 -14 14
-37 21 -52 15 -96 50 -102 79 -6 34 -12 40 -77 71 -33 17 -70 39 -82 50 -14
13 -38 21 -75 23 -58 3 -87 26 -64 49 17 17 103 39 133 34 14 -2 43 -7 65 -11z
m-200 -203 c37 -21 43 -51 15 -76 -15 -14 -20 -15 -21 -4 0 8 -4 4 -10 -9 -5
-15 -13 -20 -21 -16 -7 4 -33 6 -59 5 -25 -1 -63 5 -84 13 -21 9 -56 15 -79
15 l-41 -1 35 -7 c19 -4 45 -13 58 -20 25 -13 31 -44 7 -35 -8 4 -22 1 -30 -6
-25 -20 -115 -7 -137 20 -10 12 -18 28 -18 35 0 23 49 73 83 84 99 33 247 34
302 2z m425 -271 c13 -8 12 -10 -2 -10 -29 0 -21 -12 44 -65 69 -57 97 -109
98 -175 0 -56 -12 -71 -49 -60 -44 12 -111 59 -120 83 -10 24 -40 53 -84 81
-48 29 -53 57 -21 106 25 37 31 41 61 38 18 -2 33 0 33 4 0 11 22 10 40 -2z
m710 -70 c0 -5 -7 -7 -15 -4 -8 4 -15 8 -15 10 0 2 7 4 15 4 8 0 15 -4 15 -10z
m50 0 c0 -5 -6 -10 -14 -10 -8 0 -18 5 -21 10 -3 6 3 10 14 10 12 0 21 -4 21
-10z m37 4 c-3 -3 -12 -4 -19 -1 -8 3 -5 6 6 6 11 1 17 -2 13 -5z m6193 -4 c0
-5 12 -10 27 -10 25 0 25 -1 9 -19 -10 -10 -16 -27 -14 -36 5 -28 -19 -28 -26
0 -6 25 -36 36 -36 13 0 -7 -7 0 -15 16 -8 15 -12 32 -9 37 7 12 64 11 64 -1z
m103 -62 c3 -10 9 -10 26 0 28 16 31 15 31 -6 0 -21 29 -50 78 -78 39 -22 43
-54 7 -54 -14 0 -25 6 -25 13 0 6 -18 22 -40 35 -22 12 -40 26 -40 31 0 4 -18
16 -40 26 -41 19 -49 30 -27 38 20 9 25 8 30 -5z m-51 -58 c7 -11 17 -20 21
-20 5 0 26 -13 46 -28 20 -16 59 -37 86 -46 54 -20 72 -32 62 -42 -12 -13
-152 50 -185 83 -19 18 -38 33 -43 33 -5 0 -9 2 -9 4 0 2 -3 11 -6 20 -9 23
14 20 28 -4z m-7532 -6 c0 -2 -10 -8 -21 -15 -17 -9 -23 -8 -30 2 -6 10 -8 6
-6 -10 4 -23 7 -25 57 -22 66 3 64 -14 -5 -40 -47 -18 -64 -15 -65 14 0 4 -9
7 -21 7 -16 0 -19 4 -13 23 11 37 24 46 65 45 21 0 39 -2 39 -4z m7500 -24 c0
-5 -7 -10 -15 -10 -8 0 -15 5 -15 10 0 6 7 10 15 10 8 0 15 -4 15 -10z m-70
-136 c24 -3 49 -9 55 -15 7 -8 -6 -9 -45 -4 -71 8 -90 14 -90 27 0 6 8 7 18 3
9 -4 37 -9 62 -11z m-6792 -39 c74 -38 72 -34 88 -126 8 -49 -9 -79 -45 -79
-46 0 -92 39 -107 90 -7 25 -23 62 -35 83 -41 74 -8 85 99 32z"/>
<path d="M8236 13933 c-6 -14 -5 -15 5 -6 7 7 10 15 7 18 -3 3 -9 -2 -12 -12z"/>
<path d="M7970 13926 c0 -2 7 -7 16 -10 8 -3 12 -2 9 4 -6 10 -25 14 -25 6z"/>
<path d="M8105 13900 c16 -10 33 -28 37 -40 9 -25 24 -26 24 -1 0 11 -4 17 -9
14 -5 -3 -11 4 -14 15 -2 11 -15 23 -26 26 -39 10 -43 6 -12 -14z"/>
<path d="M8267 13913 c-4 -3 -7 -11 -7 -17 0 -6 5 -5 12 2 6 6 9 14 7 17 -3 3
-9 2 -12 -2z"/>
<path d="M7781 13874 c0 -11 3 -14 6 -6 3 7 2 16 -1 19 -3 4 -6 -2 -5 -13z"/>
<path d="M7915 13870 c3 -5 8 -10 11 -10 2 0 4 5 4 10 0 6 -5 10 -11 10 -5 0
-7 -4 -4 -10z"/>
<path d="M8660 13844 c0 -8 5 -12 10 -9 6 4 8 11 5 16 -9 14 -15 11 -15 -7z"/>
<path d="M8580 13831 c-7 -13 -7 -22 0 -26 5 -3 10 3 10 15 0 17 4 20 23 15
17 -5 19 -4 7 4 -21 15 -28 14 -40 -8z"/>
<path d="M9716 13835 c-3 -8 -1 -15 4 -15 6 0 10 7 10 15 0 8 -2 15 -4 15 -2
0 -6 -7 -10 -15z"/>
<path d="M8316 13822 c-3 -6 -1 -14 5 -17 15 -10 25 3 12 16 -7 7 -13 7 -17 1z"/>
<path d="M9115 13820 c3 -5 10 -10 16 -10 5 0 9 5 9 10 0 6 -7 10 -16 10 -8 0
-12 -4 -9 -10z"/>
<path d="M9181 13814 c0 -11 3 -14 6 -6 3 7 2 16 -1 19 -3 4 -6 -2 -5 -13z"/>
<path d="M9210 13805 c-7 -9 -8 -15 -2 -15 5 0 12 7 16 15 3 8 4 15 2 15 -2 0
-9 -7 -16 -15z"/>
<path d="M9361 13804 c0 -11 3 -14 6 -6 3 7 2 16 -1 19 -3 4 -6 -2 -5 -13z"/>
<path d="M7520 13789 c0 -5 5 -7 10 -4 6 3 10 8 10 11 0 2 -4 4 -10 4 -5 0
-10 -5 -10 -11z"/>
<path d="M7561 13774 c0 -11 3 -14 6 -6 3 7 2 16 -1 19 -3 4 -6 -2 -5 -13z"/>
<path d="M8380 13780 c0 -5 5 -10 11 -10 5 0 7 5 4 10 -3 6 -8 10 -11 10 -2 0
-4 -4 -4 -10z"/>
<path d="M9830 13783 c0 -6 8 -17 18 -24 16 -13 16 -13 2 6 -8 11 -16 22 -17
24 -2 2 -3 0 -3 -6z"/>
<path d="M7385 13750 c3 -5 8 -10 11 -10 2 0 4 5 4 10 0 6 -5 10 -11 10 -5 0
-7 -4 -4 -10z"/>
<path d="M7530 13740 c0 -5 5 -10 10 -10 6 0 10 5 10 10 0 6 -4 10 -10 10 -5
0 -10 -4 -10 -10z"/>
<path d="M9930 13731 c-7 -15 -7 -21 0 -21 12 0 25 28 17 36 -3 3 -10 -4 -17
-15z"/>
<path d="M6975 13680 c-3 -5 -2 -10 4 -10 5 0 13 5 16 10 3 6 2 10 -4 10 -5 0
-13 -4 -16 -10z"/>
<path d="M10010 13669 c0 -5 5 -7 10 -4 6 3 10 8 10 11 0 2 -4 4 -10 4 -5 0
-10 -5 -10 -11z"/>
<path d="M7200 13650 c0 -5 5 -10 10 -10 6 0 10 5 10 10 0 6 -4 10 -10 10 -5
0 -10 -4 -10 -10z"/>
<path d="M6990 13636 c0 -8 -6 -17 -12 -19 -7 -3 -4 -6 7 -6 14 -1 21 5 21 19
0 11 -4 20 -8 20 -4 0 -8 -6 -8 -14z"/>
<path d="M10077 13643 c-4 -3 -7 -11 -7 -17 0 -6 5 -5 12 2 6 6 9 14 7 17 -3
3 -9 2 -12 -2z"/>
<path d="M10073 13585 c7 -13 14 -20 15 -14 5 14 -6 39 -17 39 -5 0 -4 -11 2
-25z"/>
<path d="M6856 13535 c4 -8 1 -15 -6 -15 -7 0 -6 -5 4 -15 21 -22 27 -19 21
13 -3 15 -2 21 1 14 3 -6 10 -10 15 -6 16 10 9 20 -16 22 -18 1 -23 -2 -19
-13z"/>
<path d="M10122 13516 c7 -8 15 -12 17 -11 5 6 -10 25 -20 25 -5 0 -4 -6 3
-14z"/>
<path d="M6793 13491 c-3 -12 -9 -21 -14 -21 -5 0 -9 -11 -9 -25 0 -14 5 -25
11 -25 6 0 8 9 4 20 -4 11 -2 20 4 20 6 0 11 7 11 15 0 9 6 12 17 8 11 -4 12
-8 5 -11 -19 -6 -14 -20 11 -32 20 -10 21 -10 4 3 -12 10 -14 17 -8 22 16 9
13 19 -10 33 -18 12 -21 11 -26 -7z"/>
<path d="M10220 13446 c0 -8 -7 -16 -15 -20 -8 -3 -15 -10 -15 -16 0 -6 5 -8
11 -4 6 3 15 0 20 -7 6 -11 9 -9 9 8 0 12 3 28 6 37 3 9 1 16 -5 16 -6 0 -11
-6 -11 -14z"/>
<path d="M10306 13304 c-9 -24 -2 -26 12 -4 7 11 8 20 3 20 -5 0 -12 -7 -15
-16z"/>
<path d="M10330 13250 c0 -5 5 -10 10 -10 6 0 10 5 10 10 0 6 -4 10 -10 10 -5
0 -10 -4 -10 -10z"/>
<path d="M6500 13214 c0 -8 5 -12 10 -9 6 3 10 10 10 16 0 5 -4 9 -10 9 -5 0
-10 -7 -10 -16z"/>
<path d="M6380 13131 c0 -5 5 -13 10 -16 6 -3 10 -2 10 4 0 5 -4 13 -10 16 -5
3 -10 2 -10 -4z"/>
<path d="M6371 12994 c0 -11 3 -14 6 -6 3 7 2 16 -1 19 -3 4 -6 -2 -5 -13z"/>
<path d="M6252 12930 c0 -14 2 -19 5 -12 2 6 2 18 0 25 -3 6 -5 1 -5 -13z"/>
<path d="M6285 12880 c-13 -6 -15 -9 -5 -9 8 0 22 4 30 9 18 12 2 12 -25 0z"/>
<path d="M6245 12840 c-3 -5 -2 -10 4 -10 5 0 13 5 16 10 3 6 2 10 -4 10 -5 0
-13 -4 -16 -10z"/>
<path d="M10080 12824 c0 -8 5 -12 10 -9 6 3 10 10 10 16 0 5 -4 9 -10 9 -5 0
-10 -7 -10 -16z"/>
<path d="M6266 12774 c-11 -7 -17 -17 -13 -20 3 -4 14 1 23 10 21 22 15 28
-10 10z"/>
<path d="M6207 12773 c-4 -3 -7 -13 -7 -22 1 -13 3 -13 11 2 11 19 8 33 -4 20z"/>
<path d="M10216 12731 c-5 -7 -14 -10 -22 -7 -8 3 -11 0 -8 -8 3 -8 16 -12 32
-9 15 1 21 0 15 -3 -18 -8 -16 -25 2 -18 18 7 19 15 2 39 -10 13 -16 15 -21 6z"/>
<path d="M6189 12703 c-5 -14 -9 -33 -7 -41 2 -9 8 3 14 26 13 47 9 56 -7 15z"/>
<path d="M10166 12638 c3 -4 9 -6 14 -3 19 12 41 -8 36 -31 -7 -27 5 -32 23
-10 9 11 8 18 -4 30 -17 17 -18 17 -52 21 -12 1 -20 -2 -17 -7z"/>
<path d="M6150 12609 c0 -9 7 -22 15 -29 19 -16 19 0 0 26 -12 16 -14 16 -15
3z"/>
<path d="M6205 12579 c-4 -6 -5 -12 -2 -15 2 -3 7 2 10 11 7 17 1 20 -8 4z"/>
<path d="M10097 12573 c-4 -3 -7 -11 -7 -17 0 -6 5 -5 12 2 6 6 9 14 7 17 -3
3 -9 2 -12 -2z"/>
<path d="M10250 12560 c-13 -8 -12 -10 3 -10 9 0 17 5 17 10 0 12 -1 12 -20 0z"/>
<path d="M10210 12550 c0 -5 5 -10 10 -10 6 0 10 5 10 10 0 6 -4 10 -10 10 -5
0 -10 -4 -10 -10z"/>
<path d="M10276 12529 c3 -5 12 -9 20 -9 11 0 13 -6 8 -22 -7 -23 -6 -23 14
-4 15 13 18 21 10 30 -12 13 -60 18 -52 5z"/>
<path d="M10196 12518 c3 -5 10 -6 15 -3 13 9 11 12 -6 12 -8 0 -12 -4 -9 -9z"/>
<path d="M10261 12487 c-13 -21 -12 -21 5 -5 10 10 16 20 13 22 -3 3 -11 -5
-18 -17z"/>
<path d="M10210 12490 c0 -5 5 -10 11 -10 5 0 7 5 4 10 -3 6 -8 10 -11 10 -2
0 -4 -4 -4 -10z"/>
<path d="M6139 12477 c7 -7 14 -8 21 -1 6 6 2 10 -12 11 -16 2 -18 -1 -9 -10z"/>
<path d="M6155 12449 c-4 -6 -5 -12 -2 -15 2 -3 7 2 10 11 7 17 1 20 -8 4z"/>
<path d="M10186 12403 c2 -37 1 -36 24 -13 21 21 27 35 11 25 -5 -3 -12 -1
-16 5 -12 19 -21 10 -19 -17z"/>
<path d="M6140 12390 c0 -5 5 -10 10 -10 6 0 10 5 10 10 0 6 -4 10 -10 10 -5
0 -10 -4 -10 -10z"/>
<path d="M10260 12378 c0 -11 5 -18 12 -16 16 6 18 35 2 35 -8 0 -14 -9 -14
-19z"/>
<path d="M10297 12331 c-4 -17 -3 -21 5 -13 5 5 8 16 6 23 -3 8 -7 3 -11 -10z"/>
<path d="M10266 12323 c-6 -14 -5 -15 5 -6 7 7 10 15 7 18 -3 3 -9 -2 -12 -12z"/>
<path d="M10240 12274 c0 -10 4 -25 9 -32 7 -11 9 -11 13 0 3 8 0 22 -8 33
-14 18 -14 18 -14 -1z"/>
<path d="M10310 12280 c0 -6 -4 -9 -9 -6 -5 3 -11 -4 -14 -16 -8 -30 -5 -30
21 -3 14 14 19 26 12 30 -5 3 -10 1 -10 -5z"/>
<path d="M10210 12230 c0 -5 5 -10 11 -10 5 0 7 5 4 10 -3 6 -8 10 -11 10 -2
0 -4 -4 -4 -10z"/>
<path d="M10265 12179 c-4 -6 -5 -12 -2 -15 2 -3 7 2 10 11 7 17 1 20 -8 4z"/>
<path d="M10310 12178 c0 -7 5 -20 10 -28 8 -12 10 -11 10 7 0 12 -4 25 -10
28 -5 3 -10 0 -10 -7z"/>
<path d="M10190 12130 c0 -5 5 -10 11 -10 5 0 7 5 4 10 -3 6 -8 10 -11 10 -2
0 -4 -4 -4 -10z"/>
<path d="M10279 12106 c-8 -17 -8 -29 0 -42 10 -17 10 -16 5 7 -4 19 -1 28 10
32 18 7 22 27 6 27 -6 0 -15 -11 -21 -24z"/>
<path d="M6306 12077 c3 -10 9 -15 12 -12 3 3 0 11 -7 18 -10 9 -11 8 -5 -6z"/>
<path d="M10290 12025 c0 -8 4 -15 10 -15 5 0 7 7 4 15 -4 8 -8 15 -10 15 -2
0 -4 -7 -4 -15z"/>
<path d="M10400 12028 c0 -9 -6 -19 -12 -21 -8 -3 -7 -6 4 -6 22 -1 33 18 19
32 -8 8 -11 7 -11 -5z"/>
<path d="M10230 12021 c0 -10 19 -25 25 -20 1 2 -3 10 -11 17 -8 7 -14 8 -14
3z"/>
<path d="M10293 11986 c4 -9 2 -16 -4 -16 -19 0 -5 -33 18 -41 20 -7 22 -5 19
29 -1 27 -7 38 -20 40 -14 3 -17 0 -13 -12z"/>
<path d="M10362 11960 c-15 -25 -4 -26 15 -2 14 16 14 16 9 -2 -6 -16 -4 -17
9 -6 8 7 12 16 9 21 -9 15 -29 10 -42 -11z"/>
<path d="M6450 11950 c0 -5 5 -10 11 -10 5 0 7 5 4 10 -3 6 -8 10 -11 10 -2 0
-4 -4 -4 -10z"/>
<path d="M10252 11908 c2 -12 10 -23 18 -25 11 -4 12 -2 2 5 -7 5 -10 16 -6
25 3 10 1 17 -6 17 -6 0 -10 -10 -8 -22z"/>
<path d="M10230 11908 c0 -9 -5 -18 -12 -20 -8 -3 -8 -9 -1 -22 9 -16 11 -14
17 14 3 18 4 35 1 38 -3 3 -5 -2 -5 -10z"/>
<path d="M10220 11819 c0 -5 5 -7 10 -4 6 3 10 8 10 11 0 2 -4 4 -10 4 -5 0
-10 -5 -10 -11z"/>
<path d="M10386 11784 c-4 -9 -4 -19 -1 -22 2 -3 7 3 11 12 4 9 4 19 1 22 -2
3 -7 -3 -11 -12z"/>
<path d="M10284 11695 c-15 -14 -24 -28 -20 -32 4 -4 11 -1 16 7 10 16 11 15
29 -15 11 -19 11 -19 9 5 -1 14 1 30 5 37 15 24 -12 23 -39 -2z"/>
<path d="M10200 11660 c0 -5 5 -10 11 -10 5 0 7 5 4 10 -3 6 -8 10 -11 10 -2
0 -4 -4 -4 -10z"/>
<path d="M10226 11633 c-6 -14 -5 -15 5 -6 7 7 10 15 7 18 -3 3 -9 -2 -12 -12z"/>
<path d="M10330 11640 c0 -5 5 -10 10 -10 6 0 10 5 10 10 0 6 -4 10 -10 10 -5
0 -10 -4 -10 -10z"/>
<path d="M10320 11600 c-8 -5 -12 -11 -9 -14 2 -3 11 -1 19 4 8 5 12 11 9 14
-2 3 -11 1 -19 -4z"/>
<path d="M10340 11461 c0 -12 5 -21 10 -21 6 0 10 6 10 14 0 8 -4 18 -10 21
-5 3 -10 -3 -10 -14z"/>
<path d="M10457 11417 c3 -18 9 -37 14 -44 7 -7 5 -13 -3 -16 -7 -2 -10 -8 -5
-12 4 -5 12 -4 18 2 14 14 2 90 -16 97 -10 3 -12 -3 -8 -27z"/>
<path d="M10221 11424 c0 -11 3 -14 6 -6 3 7 2 16 -1 19 -3 4 -6 -2 -5 -13z"/>
<path d="M10501 11234 c0 -11 3 -14 6 -6 3 7 2 16 -1 19 -3 4 -6 -2 -5 -13z"/>
<path d="M10345 11220 c-3 -5 -1 -10 4 -10 6 0 11 5 11 10 0 6 -2 10 -4 10 -3
0 -8 -4 -11 -10z"/>
<path d="M10076 11177 c3 -10 9 -15 12 -12 3 3 0 11 -7 18 -10 9 -11 8 -5 -6z"/>
<path d="M10265 11173 c-4 -13 -12 -23 -18 -23 -7 0 -7 -4 1 -12 17 -17 35 3
29 33 l-4 24 -8 -22z"/>
<path d="M10320 11170 c0 -5 7 -10 15 -10 8 0 15 5 15 10 0 6 -7 10 -15 10 -8
0 -15 -4 -15 -10z"/>
<path d="M10086 11117 c3 -10 9 -15 12 -12 3 3 0 11 -7 18 -10 9 -11 8 -5 -6z"/>
<path d="M10190 11113 c0 -4 5 -15 10 -23 8 -13 10 -13 10 2 0 9 -4 20 -10 23
-5 3 -10 3 -10 -2z"/>
<path d="M10014 11094 c3 -18 16 -31 16 -15 0 7 5 9 10 6 6 -3 10 -2 10 3 0 5
-9 12 -19 15 -12 3 -18 0 -17 -9z"/>
<path d="M9795 11041 c-3 -5 -1 -12 5 -16 5 -3 10 1 10 9 0 18 -6 21 -15 7z"/>
<path d="M10021 11034 c0 -11 3 -14 6 -6 3 7 2 16 -1 19 -3 4 -6 -2 -5 -13z"/>
<path d="M9750 11011 c0 -5 5 -13 10 -16 6 -3 10 -2 10 4 0 5 -4 13 -10 16 -5
3 -10 2 -10 -4z"/>
<path d="M9687 10970 c-3 -13 0 -20 9 -20 8 0 11 -7 8 -17 -4 -11 -3 -14 3 -7
4 6 16 13 26 17 18 7 23 32 8 41 -5 3 -11 -1 -15 -9 -3 -8 -10 -15 -15 -15 -6
0 -8 7 -5 15 4 8 2 15 -4 15 -5 0 -12 -9 -15 -20z"/>
<path d="M9627 10873 c3 -7 9 -10 14 -7 14 8 11 21 -5 21 -8 0 -12 -6 -9 -14z"/>
<path d="M8353 10642 c1 -23 18 -25 25 -2 3 7 0 10 -6 6 -6 -3 -12 0 -15 6 -3
7 -4 3 -4 -10z"/>
<path d="M8855 10651 c-3 -6 4 -15 15 -21 23 -12 26 -5 6 16 -9 8 -17 10 -21
5z"/>
<path d="M9207 10639 c7 -7 15 -10 18 -7 3 3 -2 9 -12 12 -14 6 -15 5 -6 -5z"/>
<path d="M8425 10630 c3 -5 11 -10 16 -10 6 0 7 5 4 10 -3 6 -11 10 -16 10 -6
0 -7 -4 -4 -10z"/>
<path d="M8765 10630 c-3 -6 1 -7 9 -4 18 7 21 14 7 14 -6 0 -13 -4 -16 -10z"/>
<path d="M7780 10600 c0 -5 5 -10 11 -10 5 0 7 5 4 10 -3 6 -8 10 -11 10 -2 0
-4 -4 -4 -10z"/>
<path d="M8435 10590 c-10 -11 -13 -20 -8 -20 13 0 38 29 31 35 -3 3 -13 -4
-23 -15z"/>
<path d="M8740 10596 c0 -9 5 -16 10 -16 6 0 10 4 10 9 0 6 -4 13 -10 16 -5 3
-10 -1 -10 -9z"/>
<path d="M8796 10583 c-6 -14 -5 -15 5 -6 7 7 10 15 7 18 -3 3 -9 -2 -12 -12z"/>
<path d="M8838 10583 c7 -3 16 -2 19 1 4 3 -2 6 -13 5 -11 0 -14 -3 -6 -6z"/>
<path d="M8227 10565 c-4 -8 -2 -17 3 -20 6 -4 10 3 10 14 0 25 -6 27 -13 6z"/>
<path d="M8353 10573 c-7 -3 -13 -11 -13 -19 0 -9 5 -12 10 -9 6 3 10 1 10 -4
0 -6 4 -11 10 -11 5 0 9 9 7 20 -4 24 -9 29 -24 23z"/>
<path d="M7781 10547 c-13 -21 -12 -21 5 -5 10 10 16 20 13 22 -3 3 -11 -5
-18 -17z"/>
<path d="M8310 10560 c-9 -6 -10 -10 -3 -10 6 0 15 5 18 10 8 12 4 12 -15 0z"/>
<path d="M8590 10540 c0 -5 5 -10 11 -10 5 0 7 5 4 10 -3 6 -8 10 -11 10 -2 0
-4 -4 -4 -10z"/>
<path d="M7460 10510 c0 -5 5 -10 10 -10 6 0 10 5 10 10 0 6 -4 10 -10 10 -5
0 -10 -4 -10 -10z"/>
<path d="M7573 10512 c-7 -4 -9 -13 -5 -19 6 -9 11 -6 20 7 13 21 6 26 -15 12z"/>
<path d="M8436 10485 c-3 -8 -1 -15 4 -15 6 0 10 7 10 15 0 8 -2 15 -4 15 -2
0 -6 -7 -10 -15z"/>
<path d="M8397 10470 c-3 -11 -1 -20 4 -20 5 0 9 9 9 20 0 11 -2 20 -4 20 -2
0 -6 -9 -9 -20z"/>
<path d="M7437 10473 c-4 -3 -7 -11 -7 -17 0 -6 5 -5 12 2 6 6 9 14 7 17 -3 3
-9 2 -12 -2z"/>
<path d="M8120 10430 c0 -5 5 -10 10 -10 6 0 10 5 10 10 0 6 -4 10 -10 10 -5
0 -10 -4 -10 -10z"/>
<path d="M8342 10428 c-16 -16 -15 -28 2 -28 16 0 29 27 17 34 -4 3 -13 0 -19
-6z"/>
<path d="M6635 10758 c4 -13 11 -27 16 -32 5 -6 9 -24 9 -40 0 -58 16 -57 18
1 1 31 7 60 13 64 6 4 8 12 4 18 -5 9 -11 7 -20 -6 -13 -17 -14 -17 -20 0 -10
25 -28 21 -20 -5z"/>
<path d="M6811 10750 c0 -14 4 -34 9 -45 7 -17 9 -16 9 10 0 17 -4 37 -9 45
-8 12 -10 10 -9 -10z"/>
<path d="M6692 10705 c0 -16 2 -22 5 -12 2 9 2 23 0 30 -3 6 -5 -1 -5 -18z"/>
<path d="M6860 10680 c1 -8 8 -26 16 -40 l15 -25 -6 30 c-7 33 -25 59 -25 35z"/>
<path d="M6620 10671 c0 -6 5 -13 10 -16 7 -4 6 -13 -1 -26 -6 -12 -8 -23 -6
-26 3 -2 10 5 17 16 8 15 8 27 0 41 -11 21 -20 26 -20 11z"/>
<path d="M7180 10246 c0 -2 8 -10 18 -17 15 -13 16 -12 3 4 -13 16 -21 21 -21
13z"/>
<path d="M7120 10140 c-10 -24 -10 -33 0 -45 7 -9 19 -14 27 -11 7 3 13 0 13
-7 0 -24 20 18 20 44 0 52 -41 65 -60 19z"/>
<path d="M6538 10093 c12 -2 30 -2 40 0 9 3 -1 5 -23 4 -22 0 -30 -2 -17 -4z"/>
<path d="M6080 10000 c-13 -9 -13 -10 0 -10 8 0 22 5 30 10 13 9 13 10 0 10
-8 0 -22 -5 -30 -10z"/>
<path d="M6331 9938 c-35 -5 -86 -18 -112 -29 -39 -17 -53 -30 -74 -71 -23
-44 -24 -50 -8 -44 10 4 40 12 66 18 36 7 46 13 38 21 -15 15 -14 27 3 27 7 0
16 -10 19 -21 5 -20 10 -21 64 -16 66 7 98 34 88 74 -3 13 -3 23 0 23 17 0 75
-31 75 -39 0 -6 22 -11 50 -11 60 0 67 20 16 44 -33 16 -127 37 -150 35 -6 -1
-40 -6 -75 -11z m39 -38 c0 -5 -7 -7 -15 -4 -8 4 -15 8 -15 10 0 2 7 4 15 4 8
0 15 -4 15 -10z"/>
<path d="M7236 9905 c-3 -9 -6 -22 -5 -28 0 -7 5 -1 10 12 5 13 8 26 5 28 -2
2 -6 -3 -10 -12z"/>
<path d="M7230 9811 c0 -25 6 -27 13 -6 4 8 2 17 -3 20 -6 4 -10 -3 -10 -14z"/>
<path d="M5981 9771 c-10 -6 -12 -20 -8 -47 8 -48 18 -58 43 -40 19 14 19 15
0 33 -10 10 -16 13 -12 6 3 -6 2 -14 -4 -18 -5 -3 -9 8 -8 29 1 21 5 33 11 29
6 -3 7 -1 3 5 -8 14 -7 14 -25 3z"/>
<path d="M6273 9383 c9 -2 23 -2 30 0 6 3 -1 5 -18 5 -16 0 -22 -2 -12 -5z"/>
<path d="M6358 9373 c7 -3 16 -2 19 1 4 3 -2 6 -13 5 -11 0 -14 -3 -6 -6z"/>
<path d="M6561 7433 c-10 -26 -10 -27 4 -9 8 11 15 23 15 28 0 15 -7 8 -19
-19z"/>
<path d="M6501 7333 c-22 -37 -50 -84 -62 -103 -21 -35 -21 -35 0 -11 31 35
114 171 108 177 -3 3 -23 -25 -46 -63z"/>
<path d="M5928 6943 c6 -2 18 -2 25 0 6 3 1 5 -13 5 -14 0 -19 -2 -12 -5z"/>
<path d="M5978 6943 c7 -3 16 -2 19 1 4 3 -2 6 -13 5 -11 0 -14 -3 -6 -6z"/>
<path d="M5418 9962 c62 -23 94 -50 123 -106 26 -51 49 -77 60 -70 20 12 12
-50 -12 -95 l-19 -35 28 -29 27 -28 12 28 c16 37 16 60 1 66 -8 3 -5 6 6 6 16
1 18 8 14 65 -8 130 -87 204 -226 213 l-67 4 53 -19z"/>
<path d="M5531 9976 c2 -2 15 -9 29 -15 24 -11 24 -11 6 3 -16 13 -49 24 -35
12z"/>
<path d="M5000 9958 c-51 -14 -54 -23 -9 -26 21 -1 39 1 39 6 0 5 10 14 23 20
20 10 20 11 2 10 -11 0 -36 -4 -55 -10z"/>
<path d="M4863 9893 c-26 -39 -21 -138 12 -240 14 -46 27 -83 28 -83 2 0 3 79
2 175 0 185 -6 204 -42 148z"/>
<path d="M5138 9890 c-71 -11 -142 -49 -146 -77 -5 -37 56 -65 102 -47 9 3 14
10 11 14 -3 5 9 4 27 -1 18 -5 69 -7 113 -3 68 4 83 9 102 30 23 25 53 24 53
-2 0 -7 12 -17 28 -20 15 -4 39 -13 55 -21 34 -17 35 -4 2 27 -14 13 -23 25
-21 28 3 2 -7 14 -22 27 -44 37 -202 60 -304 45z m69 -77 c10 -31 9 -33 -11
-27 -31 9 -50 30 -43 48 11 27 43 14 54 -21z"/>
<path d="M4044 1805 c-24 -37 -10 -61 44 -76 26 -7 54 -12 62 -11 15 2 50 -45
50 -67 0 -13 -34 -14 -58 -2 -9 4 -33 11 -54 14 -29 4 -37 2 -41 -12 -3 -13 3
-18 26 -19 17 -2 34 3 38 10 5 8 10 3 14 -15 6 -21 16 -29 46 -37 36 -10 46
-29 16 -30 -7 -1 -37 -12 -67 -26 l-55 -25 48 4 c26 3 50 1 52 -4 11 -16 -21
-50 -73 -81 -60 -34 -62 -44 -5 -29 21 6 71 11 111 11 56 0 76 4 90 18 9 10
39 42 66 71 26 29 51 49 54 46 4 -4 16 -39 28 -78 18 -61 25 -72 45 -75 27 -3
228 -44 334 -68 39 -9 115 -36 170 -61 84 -37 112 -44 179 -48 52 -3 90 1 111
9 41 18 86 95 89 153 2 54 11 61 40 34 l24 -23 -11 34 c-7 18 -16 38 -20 45
-4 6 -3 23 2 36 9 22 5 29 -25 55 -20 17 -35 32 -35 34 0 2 -2 13 -5 26 -7 23
-9 23 -104 27 -70 3 -124 13 -156 30 -16 8 -37 15 -48 15 -10 0 -57 18 -104
40 -85 40 -101 41 -102 3 0 -32 -115 -53 -184 -33 -38 10 -47 10 -70 -5 -26
-17 -27 -17 -41 1 -13 18 -14 18 -20 2 -10 -25 -22 -22 -29 7 -4 14 -11 23
-16 20 -5 -3 -22 3 -37 13 -84 58 -130 82 -157 83 -17 0 -70 2 -118 4 -84 4
-89 3 -104 -20z"/>
</g>
</svg>
